<svg xmlns="http://www.w3.org/2000/svg" xmlns:xlink="http://www.w3.org/1999/xlink" width="500" zoomAndPan="magnify" viewBox="0 0 375 374.999991" height="500" preserveAspectRatio="xMidYMid meet" version="1.0"><defs><clipPath id="db6bcfece6"><path d="M 130 93.324219 L 344.480469 93.324219 L 344.480469 229 L 130 229 Z M 130 93.324219 " clip-rule="nonzero"/></clipPath><clipPath id="b4020527a6"><path d="M 161 233 L 209 233 L 209 281.574219 L 161 281.574219 Z M 161 233 " clip-rule="nonzero"/></clipPath><clipPath id="8d3d5bf5fa"><path d="M 228 233 L 277 233 L 277 281.574219 L 228 281.574219 Z M 228 233 " clip-rule="nonzero"/></clipPath><clipPath id="3a6941d022"><path d="M 30.230469 175 L 154 175 L 154 190 L 30.230469 190 Z M 30.230469 175 " clip-rule="nonzero"/></clipPath></defs><g clip-path="url(#db6bcfece6)"><path fill="#ffed80" d="M 344.480469 130.125 L 322.753906 220.40625 C 322.75 220.835938 322.707031 221.261719 322.625 221.679688 C 322.539062 222.101562 322.414062 222.511719 322.25 222.90625 C 322.082031 223.304688 321.882812 223.679688 321.644531 224.039062 C 321.402344 224.394531 321.132812 224.722656 320.828125 225.027344 C 320.527344 225.332031 320.195312 225.601562 319.839844 225.84375 C 319.480469 226.082031 319.105469 226.28125 318.710938 226.449219 C 318.3125 226.613281 317.90625 226.738281 317.484375 226.824219 C 317.0625 226.90625 316.636719 226.949219 316.207031 226.953125 L 169.804688 228.011719 C 169.375 228.011719 168.949219 227.96875 168.53125 227.882812 C 168.109375 227.800781 167.699219 227.675781 167.304688 227.507812 C 166.90625 227.34375 166.53125 227.140625 166.175781 226.902344 C 165.816406 226.664062 165.488281 226.394531 165.183594 226.089844 C 164.882812 225.785156 164.609375 225.457031 164.371094 225.097656 C 164.132812 224.742188 163.929688 224.367188 163.765625 223.96875 C 163.601562 223.574219 163.476562 223.164062 163.390625 222.742188 C 163.304688 222.320312 163.261719 221.898438 163.261719 221.46875 L 163.261719 130.113281 C 163.257812 129.933594 163.265625 129.753906 163.285156 129.578125 L 161.304688 111.902344 L 139.664062 111.902344 C 139.070312 111.878906 138.484375 111.796875 137.90625 111.664062 C 137.328125 111.527344 136.769531 111.335938 136.230469 111.09375 C 135.6875 110.847656 135.175781 110.554688 134.6875 110.214844 C 134.203125 109.871094 133.757812 109.488281 133.34375 109.058594 C 132.933594 108.632812 132.566406 108.167969 132.246094 107.667969 C 131.921875 107.171875 131.648438 106.644531 131.429688 106.09375 C 131.207031 105.542969 131.039062 104.976562 130.925781 104.394531 C 130.8125 103.8125 130.757812 103.222656 130.757812 102.628906 C 130.757812 102.035156 130.8125 101.449219 130.925781 100.863281 C 131.039062 100.28125 131.207031 99.714844 131.429688 99.164062 C 131.648438 98.613281 131.921875 98.089844 132.246094 97.589844 C 132.566406 97.09375 132.933594 96.628906 133.34375 96.199219 C 133.757812 95.773438 134.203125 95.386719 134.6875 95.046875 C 135.175781 94.703125 135.6875 94.410156 136.230469 94.167969 C 136.769531 93.921875 137.328125 93.734375 137.90625 93.597656 C 138.484375 93.460938 139.070312 93.382812 139.664062 93.359375 L 177.863281 93.359375 C 177.867188 93.390625 177.867188 93.425781 177.863281 93.457031 L 179.929688 111.914062 L 181.238281 123.574219 L 337.9375 123.574219 C 338.367188 123.574219 338.789062 123.621094 339.210938 123.703125 C 339.632812 123.789062 340.042969 123.914062 340.4375 124.078125 C 340.835938 124.246094 341.210938 124.445312 341.566406 124.683594 C 341.925781 124.925781 342.253906 125.195312 342.558594 125.5 C 342.863281 125.804688 343.132812 126.132812 343.371094 126.492188 C 343.609375 126.847656 343.8125 127.226562 343.976562 127.621094 C 344.140625 128.019531 344.265625 128.425781 344.351562 128.847656 C 344.4375 129.269531 344.480469 129.695312 344.480469 130.125 Z M 344.480469 130.125 " fill-opacity="1" fill-rule="nonzero"/></g><g clip-path="url(#b4020527a6)"><path fill="#4df4ff" d="M 208.816406 257.703125 C 208.816406 258.484375 208.777344 259.261719 208.703125 260.039062 C 208.625 260.816406 208.511719 261.589844 208.359375 262.355469 C 208.207031 263.121094 208.015625 263.878906 207.789062 264.625 C 207.5625 265.375 207.300781 266.109375 207 266.832031 C 206.703125 267.550781 206.367188 268.257812 206 268.945312 C 205.632812 269.636719 205.230469 270.304688 204.796875 270.953125 C 204.363281 271.605469 203.898438 272.230469 203.402344 272.835938 C 202.910156 273.4375 202.382812 274.015625 201.832031 274.570312 C 201.28125 275.121094 200.703125 275.644531 200.097656 276.140625 C 199.496094 276.636719 198.867188 277.101562 198.21875 277.535156 C 197.570312 277.972656 196.898438 278.371094 196.210938 278.742188 C 195.523438 279.109375 194.816406 279.441406 194.097656 279.742188 C 193.375 280.039062 192.640625 280.304688 191.894531 280.53125 C 191.144531 280.757812 190.386719 280.945312 189.621094 281.097656 C 188.855469 281.25 188.085938 281.367188 187.308594 281.441406 C 186.53125 281.519531 185.75 281.558594 184.96875 281.558594 C 184.191406 281.558594 183.410156 281.519531 182.632812 281.441406 C 181.855469 281.367188 181.085938 281.25 180.320312 281.097656 C 179.550781 280.945312 178.796875 280.757812 178.046875 280.53125 C 177.300781 280.304688 176.566406 280.039062 175.84375 279.742188 C 175.125 279.441406 174.417969 279.109375 173.730469 278.742188 C 173.039062 278.371094 172.371094 277.972656 171.722656 277.535156 C 171.074219 277.101562 170.445312 276.636719 169.84375 276.140625 C 169.238281 275.648438 168.660156 275.121094 168.109375 274.570312 C 167.554688 274.015625 167.03125 273.4375 166.539062 272.835938 C 166.042969 272.230469 165.578125 271.605469 165.144531 270.953125 C 164.710938 270.304688 164.308594 269.636719 163.941406 268.945312 C 163.570312 268.257812 163.238281 267.550781 162.941406 266.832031 C 162.640625 266.109375 162.378906 265.375 162.152344 264.625 C 161.925781 263.878906 161.734375 263.121094 161.582031 262.355469 C 161.429688 261.589844 161.316406 260.816406 161.238281 260.039062 C 161.164062 259.261719 161.125 258.484375 161.125 257.703125 C 161.125 256.921875 161.164062 256.140625 161.238281 255.363281 C 161.316406 254.585938 161.429688 253.8125 161.582031 253.046875 C 161.734375 252.28125 161.925781 251.523438 162.152344 250.777344 C 162.378906 250.027344 162.640625 249.292969 162.941406 248.574219 C 163.238281 247.851562 163.570312 247.144531 163.941406 246.457031 C 164.308594 245.765625 164.710938 245.097656 165.144531 244.449219 C 165.578125 243.796875 166.042969 243.171875 166.539062 242.566406 C 167.03125 241.964844 167.554688 241.386719 168.109375 240.832031 C 168.660156 240.28125 169.238281 239.757812 169.84375 239.261719 C 170.445312 238.765625 171.074219 238.300781 171.722656 237.867188 C 172.371094 237.433594 173.039062 237.03125 173.730469 236.664062 C 174.417969 236.292969 175.125 235.960938 175.84375 235.660156 C 176.566406 235.363281 177.300781 235.101562 178.046875 234.875 C 178.796875 234.648438 179.550781 234.457031 180.320312 234.304688 C 181.085938 234.152344 181.855469 234.039062 182.632812 233.960938 C 183.410156 233.882812 184.191406 233.847656 184.96875 233.847656 C 185.75 233.847656 186.53125 233.882812 187.308594 233.960938 C 188.085938 234.039062 188.855469 234.152344 189.621094 234.304688 C 190.386719 234.457031 191.144531 234.648438 191.894531 234.875 C 192.640625 235.101562 193.375 235.363281 194.097656 235.660156 C 194.816406 235.960938 195.523438 236.292969 196.210938 236.664062 C 196.898438 237.03125 197.570312 237.433594 198.21875 237.867188 C 198.867188 238.300781 199.496094 238.765625 200.097656 239.261719 C 200.703125 239.757812 201.28125 240.28125 201.832031 240.832031 C 202.382812 241.386719 202.910156 241.964844 203.402344 242.566406 C 203.898438 243.171875 204.363281 243.796875 204.796875 244.449219 C 205.230469 245.097656 205.632812 245.765625 206 246.457031 C 206.367188 247.144531 206.703125 247.851562 207 248.574219 C 207.300781 249.292969 207.5625 250.027344 207.789062 250.777344 C 208.015625 251.523438 208.207031 252.28125 208.359375 253.046875 C 208.511719 253.8125 208.625 254.585938 208.703125 255.363281 C 208.777344 256.140625 208.816406 256.921875 208.816406 257.703125 Z M 208.816406 257.703125 " fill-opacity="1" fill-rule="nonzero"/></g><g clip-path="url(#8d3d5bf5fa)"><path fill="#4df4ff" d="M 276.117188 257.703125 C 276.117188 258.484375 276.078125 259.261719 276.003906 260.039062 C 275.925781 260.816406 275.8125 261.589844 275.660156 262.355469 C 275.507812 263.121094 275.316406 263.878906 275.089844 264.625 C 274.863281 265.375 274.601562 266.109375 274.300781 266.832031 C 274.003906 267.550781 273.671875 268.257812 273.300781 268.945312 C 272.933594 269.636719 272.53125 270.304688 272.097656 270.953125 C 271.664062 271.605469 271.199219 272.230469 270.703125 272.835938 C 270.210938 273.4375 269.6875 274.015625 269.132812 274.570312 C 268.582031 275.121094 268.003906 275.644531 267.398438 276.140625 C 266.796875 276.636719 266.167969 277.101562 265.519531 277.535156 C 264.871094 277.972656 264.203125 278.371094 263.511719 278.742188 C 262.824219 279.109375 262.117188 279.441406 261.398438 279.742188 C 260.675781 280.039062 259.941406 280.304688 259.195312 280.53125 C 258.445312 280.757812 257.691406 280.945312 256.925781 281.097656 C 256.15625 281.25 255.386719 281.367188 254.609375 281.441406 C 253.832031 281.519531 253.054688 281.558594 252.273438 281.558594 C 251.492188 281.558594 250.710938 281.519531 249.933594 281.441406 C 249.15625 281.367188 248.386719 281.25 247.621094 281.097656 C 246.855469 280.945312 246.097656 280.757812 245.351562 280.53125 C 244.601562 280.304688 243.867188 280.039062 243.144531 279.742188 C 242.425781 279.441406 241.71875 279.109375 241.03125 278.742188 C 240.34375 278.371094 239.671875 277.972656 239.023438 277.535156 C 238.375 277.101562 237.746094 276.636719 237.144531 276.140625 C 236.539062 275.648438 235.960938 275.121094 235.410156 274.570312 C 234.859375 274.015625 234.332031 273.4375 233.839844 272.835938 C 233.34375 272.230469 232.878906 271.605469 232.445312 270.953125 C 232.011719 270.304688 231.609375 269.636719 231.242188 268.945312 C 230.875 268.257812 230.539062 267.550781 230.242188 266.832031 C 229.941406 266.109375 229.679688 265.375 229.453125 264.625 C 229.226562 263.878906 229.035156 263.121094 228.882812 262.355469 C 228.730469 261.589844 228.617188 260.816406 228.539062 260.039062 C 228.464844 259.261719 228.425781 258.484375 228.425781 257.703125 C 228.425781 256.921875 228.464844 256.140625 228.539062 255.363281 C 228.617188 254.585938 228.730469 253.8125 228.882812 253.046875 C 229.035156 252.28125 229.226562 251.523438 229.453125 250.777344 C 229.679688 250.027344 229.941406 249.292969 230.242188 248.574219 C 230.539062 247.851562 230.875 247.144531 231.242188 246.457031 C 231.609375 245.765625 232.011719 245.097656 232.445312 244.449219 C 232.878906 243.796875 233.34375 243.171875 233.839844 242.566406 C 234.332031 241.964844 234.859375 241.386719 235.410156 240.832031 C 235.960938 240.28125 236.539062 239.757812 237.144531 239.261719 C 237.746094 238.765625 238.375 238.300781 239.023438 237.867188 C 239.671875 237.433594 240.34375 237.03125 241.03125 236.664062 C 241.71875 236.292969 242.425781 235.960938 243.144531 235.660156 C 243.867188 235.363281 244.601562 235.101562 245.351562 234.875 C 246.097656 234.648438 246.855469 234.457031 247.621094 234.304688 C 248.386719 234.152344 249.15625 234.039062 249.933594 233.960938 C 250.710938 233.882812 251.492188 233.847656 252.273438 233.847656 C 253.054688 233.847656 253.832031 233.882812 254.609375 233.960938 C 255.386719 234.039062 256.15625 234.152344 256.925781 234.304688 C 257.691406 234.457031 258.445312 234.648438 259.195312 234.875 C 259.941406 235.101562 260.675781 235.363281 261.398438 235.660156 C 262.117188 235.960938 262.824219 236.292969 263.511719 236.664062 C 264.203125 237.03125 264.871094 237.433594 265.519531 237.867188 C 266.167969 238.300781 266.796875 238.765625 267.398438 239.261719 C 268.003906 239.757812 268.582031 240.28125 269.132812 240.832031 C 269.6875 241.386719 270.210938 241.964844 270.703125 242.566406 C 271.199219 243.171875 271.664062 243.796875 272.097656 244.449219 C 272.53125 245.097656 272.933594 245.765625 273.300781 246.457031 C 273.671875 247.144531 274.003906 247.851562 274.300781 248.574219 C 274.601562 249.292969 274.863281 250.027344 275.089844 250.777344 C 275.316406 251.523438 275.507812 252.28125 275.660156 253.046875 C 275.8125 253.8125 275.925781 254.585938 276.003906 255.363281 C 276.078125 256.140625 276.117188 256.921875 276.117188 257.703125 Z M 276.117188 257.703125 " fill-opacity="1" fill-rule="nonzero"/></g><path fill="#ffed80" d="M 92.761719 131.527344 L 147.34375 131.527344 C 147.761719 131.527344 148.175781 131.566406 148.585938 131.648438 C 148.996094 131.730469 149.394531 131.851562 149.777344 132.011719 C 150.164062 132.171875 150.53125 132.367188 150.878906 132.597656 C 151.226562 132.832031 151.546875 133.09375 151.84375 133.390625 C 152.136719 133.683594 152.402344 134.007812 152.632812 134.355469 C 152.863281 134.699219 153.0625 135.066406 153.21875 135.453125 C 153.378906 135.839844 153.5 136.238281 153.582031 136.648438 C 153.664062 137.054688 153.703125 137.46875 153.703125 137.886719 L 153.703125 139.476562 C 153.703125 139.894531 153.664062 140.308594 153.582031 140.71875 C 153.5 141.128906 153.378906 141.527344 153.21875 141.914062 C 153.0625 142.296875 152.863281 142.664062 152.632812 143.011719 C 152.402344 143.359375 152.136719 143.679688 151.84375 143.976562 C 151.546875 144.273438 151.226562 144.535156 150.878906 144.769531 C 150.53125 145 150.164062 145.195312 149.777344 145.355469 C 149.394531 145.515625 148.996094 145.636719 148.585938 145.71875 C 148.175781 145.800781 147.761719 145.839844 147.34375 145.839844 L 92.761719 145.839844 C 92.34375 145.839844 91.929688 145.800781 91.523438 145.71875 C 91.113281 145.636719 90.714844 145.515625 90.328125 145.355469 C 89.941406 145.195312 89.578125 145 89.230469 144.769531 C 88.882812 144.535156 88.5625 144.273438 88.265625 143.976562 C 87.96875 143.679688 87.707031 143.359375 87.476562 143.011719 C 87.242188 142.664062 87.046875 142.296875 86.886719 141.914062 C 86.726562 141.527344 86.605469 141.128906 86.527344 140.71875 C 86.445312 140.308594 86.402344 139.894531 86.402344 139.476562 L 86.402344 137.886719 C 86.402344 137.46875 86.445312 137.054688 86.527344 136.648438 C 86.605469 136.238281 86.726562 135.839844 86.886719 135.453125 C 87.046875 135.066406 87.242188 134.699219 87.476562 134.355469 C 87.707031 134.007812 87.96875 133.683594 88.265625 133.390625 C 88.5625 133.09375 88.882812 132.832031 89.230469 132.597656 C 89.578125 132.367188 89.941406 132.171875 90.328125 132.011719 C 90.714844 131.851562 91.113281 131.730469 91.523438 131.648438 C 91.929688 131.566406 92.34375 131.527344 92.761719 131.527344 Z M 92.761719 131.527344 " fill-opacity="1" fill-rule="nonzero"/><path fill="#ffed80" d="M 92.761719 220.589844 L 147.34375 220.589844 C 147.761719 220.589844 148.175781 220.632812 148.585938 220.710938 C 148.996094 220.792969 149.394531 220.914062 149.777344 221.074219 C 150.164062 221.234375 150.53125 221.429688 150.878906 221.664062 C 151.226562 221.894531 151.546875 222.160156 151.84375 222.453125 C 152.136719 222.75 152.402344 223.070312 152.632812 223.417969 C 152.863281 223.765625 153.0625 224.132812 153.21875 224.519531 C 153.378906 224.902344 153.5 225.300781 153.582031 225.710938 C 153.664062 226.121094 153.703125 226.535156 153.703125 226.953125 L 153.703125 228.542969 C 153.703125 228.960938 153.664062 229.375 153.582031 229.785156 C 153.5 230.191406 153.378906 230.589844 153.21875 230.976562 C 153.0625 231.363281 152.863281 231.730469 152.632812 232.078125 C 152.402344 232.425781 152.136719 232.746094 151.84375 233.039062 C 151.546875 233.335938 151.226562 233.601562 150.878906 233.832031 C 150.53125 234.0625 150.164062 234.261719 149.777344 234.417969 C 149.394531 234.578125 148.996094 234.699219 148.585938 234.78125 C 148.175781 234.863281 147.761719 234.902344 147.34375 234.902344 L 92.761719 234.902344 C 92.34375 234.902344 91.929688 234.863281 91.523438 234.78125 C 91.113281 234.699219 90.714844 234.578125 90.328125 234.417969 C 89.941406 234.257812 89.578125 234.0625 89.230469 233.832031 C 88.882812 233.601562 88.5625 233.335938 88.265625 233.039062 C 87.96875 232.746094 87.707031 232.425781 87.476562 232.078125 C 87.242188 231.730469 87.046875 231.363281 86.886719 230.976562 C 86.726562 230.589844 86.605469 230.191406 86.527344 229.785156 C 86.445312 229.375 86.402344 228.960938 86.402344 228.542969 L 86.402344 226.953125 C 86.402344 226.535156 86.445312 226.121094 86.527344 225.710938 C 86.605469 225.300781 86.726562 224.902344 86.886719 224.519531 C 87.046875 224.132812 87.242188 223.765625 87.476562 223.417969 C 87.707031 223.070312 87.96875 222.75 88.265625 222.453125 C 88.5625 222.160156 88.882812 221.894531 89.230469 221.664062 C 89.578125 221.429688 89.941406 221.234375 90.328125 221.074219 C 90.714844 220.914062 91.113281 220.792969 91.523438 220.710938 C 91.929688 220.632812 92.34375 220.589844 92.761719 220.589844 Z M 92.761719 220.589844 " fill-opacity="1" fill-rule="nonzero"/><g clip-path="url(#3a6941d022)"><path fill="#ffed80" d="M 37.382812 175 L 146.550781 175 C 147.019531 175 147.484375 175.042969 147.945312 175.136719 C 148.40625 175.226562 148.855469 175.363281 149.289062 175.542969 C 149.722656 175.722656 150.132812 175.945312 150.523438 176.203125 C 150.914062 176.464844 151.277344 176.761719 151.609375 177.09375 C 151.941406 177.425781 152.238281 177.789062 152.5 178.179688 C 152.761719 178.570312 152.980469 178.984375 153.160156 179.417969 C 153.339844 179.851562 153.476562 180.296875 153.566406 180.757812 C 153.660156 181.21875 153.703125 181.6875 153.703125 182.15625 C 153.703125 182.625 153.660156 183.089844 153.566406 183.550781 C 153.476562 184.011719 153.339844 184.460938 153.160156 184.894531 C 152.980469 185.328125 152.761719 185.742188 152.5 186.132812 C 152.238281 186.523438 151.941406 186.882812 151.609375 187.214844 C 151.277344 187.546875 150.914062 187.84375 150.523438 188.105469 C 150.132812 188.367188 149.722656 188.585938 149.289062 188.765625 C 148.855469 188.945312 148.40625 189.082031 147.945312 189.175781 C 147.484375 189.265625 147.019531 189.3125 146.550781 189.3125 L 37.382812 189.3125 C 36.914062 189.3125 36.449219 189.265625 35.988281 189.175781 C 35.527344 189.082031 35.082031 188.945312 34.644531 188.765625 C 34.210938 188.585938 33.800781 188.367188 33.410156 188.105469 C 33.019531 187.84375 32.65625 187.546875 32.324219 187.214844 C 31.992188 186.882812 31.695312 186.523438 31.4375 186.132812 C 31.175781 185.742188 30.953125 185.328125 30.773438 184.894531 C 30.59375 184.460938 30.460938 184.011719 30.367188 183.550781 C 30.277344 183.089844 30.230469 182.625 30.230469 182.15625 C 30.230469 181.6875 30.277344 181.21875 30.367188 180.757812 C 30.460938 180.296875 30.59375 179.851562 30.773438 179.417969 C 30.953125 178.984375 31.175781 178.570312 31.4375 178.179688 C 31.695312 177.789062 31.992188 177.425781 32.324219 177.09375 C 32.65625 176.761719 33.019531 176.464844 33.410156 176.203125 C 33.800781 175.945312 34.210938 175.722656 34.644531 175.542969 C 35.082031 175.363281 35.527344 175.226562 35.988281 175.136719 C 36.449219 175.042969 36.914062 175 37.382812 175 Z M 37.382812 175 " fill-opacity="1" fill-rule="nonzero"/></g></svg>