<svg xmlns="http://www.w3.org/2000/svg" xmlns:xlink="http://www.w3.org/1999/xlink" width="50" zoomAndPan="magnify" viewBox="0 0 37.5 37.499999" height="50" preserveAspectRatio="xMidYMid meet" version="1.0"><defs><clipPath id="ced070dd03"><path d="M 0 0 L 37.007812 0 L 37.007812 37.007812 L 0 37.007812 Z M 0 0 " clip-rule="nonzero"/></clipPath><clipPath id="7b79d45e41"><path d="M 3.75 8.117188 L 33.75 8.117188 L 33.75 29.117188 L 3.75 29.117188 Z M 3.75 8.117188 " clip-rule="nonzero"/></clipPath></defs><g clip-path="url(#ced070dd03)"><path fill="#ffffff" d="M 0 0 L 37.5 0 L 37.5 127.5 L 0 127.5 Z M 0 0 " fill-opacity="1" fill-rule="nonzero"/><path fill="#ffffff" d="M 0 0 L 37.5 0 L 37.5 37.5 L 0 37.5 Z M 0 0 " fill-opacity="1" fill-rule="nonzero"/><path fill="#ffffff" d="M 0 0 L 37.5 0 L 37.5 37.5 L 0 37.5 Z M 0 0 " fill-opacity="1" fill-rule="nonzero"/></g><g clip-path="url(#7b79d45e41)"><path fill="#4df4ff" d="M 28.75 26.644531 C 30.132812 26.644531 31.238281 25.539062 31.238281 24.175781 L 31.25 10.59375 C 31.25 9.226562 30.132812 8.121094 28.75 8.121094 L 8.75 8.121094 C 7.367188 8.121094 6.25 9.226562 6.25 10.59375 L 6.25 24.175781 C 6.25 25.539062 7.367188 26.644531 8.75 26.644531 L 3.75 26.644531 C 3.75 28.007812 4.867188 29.113281 6.25 29.113281 L 31.25 29.113281 C 32.632812 29.113281 33.75 28.007812 33.75 26.644531 Z M 8.75 10.59375 L 28.75 10.59375 L 28.75 24.175781 L 8.75 24.175781 Z M 18.75 27.878906 C 18.0625 27.878906 17.5 27.324219 17.5 26.644531 C 17.5 25.964844 18.0625 25.410156 18.75 25.410156 C 19.4375 25.410156 20 25.964844 20 26.644531 C 20 27.324219 19.4375 27.878906 18.75 27.878906 Z M 18.75 27.878906 " fill-opacity="1" fill-rule="nonzero"/></g></svg>