<svg xmlns="http://www.w3.org/2000/svg" xmlns:xlink="http://www.w3.org/1999/xlink" width="500" zoomAndPan="magnify" viewBox="0 0 375 374.999991" height="500" preserveAspectRatio="xMidYMid meet" version="1.0"><defs><g/><clipPath id="9a9dec2ce3"><path d="M 96 104 L 241 104 L 241 268 L 96 268 Z M 96 104 " clip-rule="nonzero"/></clipPath><clipPath id="e32bb66289"><path d="M 51.582031 10.488281 L 317.175781 54.703125 L 265.574219 364.6875 L -0.0234375 320.472656 Z M 51.582031 10.488281 " clip-rule="nonzero"/></clipPath><clipPath id="eec52e26f2"><path d="M 51.582031 10.488281 L 317.175781 54.703125 L 265.574219 364.6875 L -0.0234375 320.472656 Z M 51.582031 10.488281 " clip-rule="nonzero"/></clipPath><clipPath id="4f1702f67e"><path d="M 51.582031 10.488281 L 317.175781 54.703125 L 265.574219 364.6875 L -0.0234375 320.472656 Z M 51.582031 10.488281 " clip-rule="nonzero"/></clipPath><clipPath id="12b68120b5"><path d="M 79 15 L 303 15 L 303 178 L 79 178 Z M 79 15 " clip-rule="nonzero"/></clipPath><clipPath id="484b1417a9"><path d="M 51.582031 10.488281 L 317.175781 54.703125 L 265.574219 364.6875 L -0.0234375 320.472656 Z M 51.582031 10.488281 " clip-rule="nonzero"/></clipPath><clipPath id="c1bb7c59c7"><path d="M 51.582031 10.488281 L 317.175781 54.703125 L 265.574219 364.6875 L -0.0234375 320.472656 Z M 51.582031 10.488281 " clip-rule="nonzero"/></clipPath><clipPath id="f880a3daad"><path d="M 51.582031 10.488281 L 317.175781 54.703125 L 265.574219 364.6875 L -0.0234375 320.472656 Z M 51.582031 10.488281 " clip-rule="nonzero"/></clipPath><clipPath id="ecca33b886"><path d="M 44 56 L 292 56 L 292 337 L 44 337 Z M 44 56 " clip-rule="nonzero"/></clipPath><clipPath id="acf3fe3841"><path d="M 51.582031 10.488281 L 317.175781 54.703125 L 265.574219 364.6875 L -0.0234375 320.472656 Z M 51.582031 10.488281 " clip-rule="nonzero"/></clipPath><clipPath id="19c040318c"><path d="M 51.582031 10.488281 L 317.175781 54.703125 L 265.574219 364.6875 L -0.0234375 320.472656 Z M 51.582031 10.488281 " clip-rule="nonzero"/></clipPath><clipPath id="7ef2597a04"><path d="M 51.582031 10.488281 L 317.175781 54.703125 L 265.574219 364.6875 L -0.0234375 320.472656 Z M 51.582031 10.488281 " clip-rule="nonzero"/></clipPath><clipPath id="69a567607e"><path d="M 91 78 L 239 78 L 239 229 L 91 229 Z M 91 78 " clip-rule="nonzero"/></clipPath><clipPath id="eb1029e457"><path d="M 34.949219 131.308594 L 147.183594 26.398438 L 238.035156 123.59375 L 125.800781 228.503906 Z M 34.949219 131.308594 " clip-rule="nonzero"/></clipPath><clipPath id="98f00a7fde"><path d="M 125.800781 228.503906 L 91.066406 78.855469 L 238.035156 123.59375 Z M 125.800781 228.503906 " clip-rule="nonzero"/></clipPath><clipPath id="8060944386"><path d="M 147 98 L 267 98 L 267 218 L 147 218 Z M 147 98 " clip-rule="nonzero"/></clipPath><clipPath id="7a49b58a50"><path d="M 216.894531 98.003906 L 266.75 167.773438 L 196.980469 217.628906 L 147.125 147.859375 Z M 216.894531 98.003906 " clip-rule="nonzero"/></clipPath><clipPath id="3b91f9220b"><path d="M 216.894531 98.003906 L 266.652344 167.632812 L 197.019531 217.390625 L 147.265625 147.757812 Z M 216.894531 98.003906 " clip-rule="nonzero"/></clipPath></defs><rect x="-37.5" width="450" fill="#ffffff" y="-37.499999" height="449.999989" fill-opacity="1"/><rect x="-37.5" width="450" fill="#ffffff" y="-37.499999" height="449.999989" fill-opacity="1"/><rect x="-37.5" width="450" fill="#ffffff" y="-37.499999" height="449.999989" fill-opacity="1"/><g clip-path="url(#9a9dec2ce3)"><g clip-path="url(#e32bb66289)"><g clip-path="url(#eec52e26f2)"><g clip-path="url(#4f1702f67e)"><path fill="#ffed80" d="M 128.414062 267.652344 L 240.792969 187.402344 L 96.445312 104.238281 Z M 128.414062 267.652344 " fill-opacity="1" fill-rule="nonzero"/></g></g></g></g><g clip-path="url(#12b68120b5)"><g clip-path="url(#484b1417a9)"><g clip-path="url(#c1bb7c59c7)"><g clip-path="url(#f880a3daad)"><path fill="#ffed80" d="M 79.015625 15.054688 L 92.691406 84.894531 L 254.132812 177.875 L 302.222656 143.539062 Z M 79.015625 15.054688 " fill-opacity="1" fill-rule="nonzero"/></g></g></g></g><g clip-path="url(#ecca33b886)"><g clip-path="url(#acf3fe3841)"><g clip-path="url(#19c040318c)"><g clip-path="url(#7ef2597a04)"><path fill="#4df4ff" d="M 44.035156 56.820312 L 98.753906 336.914062 L 291.402344 199.347656 L 254.132812 177.875 L 92.691406 84.894531 Z M 263.886719 200.671875 L 108.996094 311.277344 L 64.992188 86.125 L 96.507812 104.25 L 240.867188 187.347656 Z M 263.886719 200.671875 " fill-opacity="1" fill-rule="nonzero"/></g></g></g></g><g clip-path="url(#69a567607e)"><g clip-path="url(#eb1029e457)"><g clip-path="url(#98f00a7fde)"><path fill="#ffed80" d="M 34.949219 131.308594 L 147.183594 26.398438 L 238.035156 123.59375 L 125.800781 228.503906 Z M 34.949219 131.308594 " fill-opacity="1" fill-rule="nonzero"/></g></g></g><g clip-path="url(#8060944386)"><g clip-path="url(#7a49b58a50)"><g clip-path="url(#3b91f9220b)"><path fill="#ffed80" d="M 216.894531 98.003906 L 266.75 167.773438 L 196.980469 217.628906 L 147.125 147.859375 Z M 216.894531 98.003906 " fill-opacity="1" fill-rule="nonzero"/></g></g></g><g fill="#ff66c4" fill-opacity="1"><g transform="translate(101.072443, 147.89569)"><g><path d="M 69.46875 -91.625 C 70.070312 -87.539062 69.351562 -83.867188 67.3125 -80.609375 C 65.269531 -77.347656 62.25 -75.457031 58.25 -74.9375 C 57.039062 -74.851562 56.128906 -75.285156 55.515625 -76.234375 C 54.910156 -77.191406 54.800781 -78.234375 55.1875 -79.359375 C 55.582031 -80.492188 56.300781 -81.28125 57.34375 -81.71875 C 59.082031 -82.238281 60.320312 -83.363281 61.0625 -85.09375 C 61.800781 -86.832031 61.882812 -88.59375 61.3125 -90.375 C 60.75 -92.15625 59.6875 -93.484375 58.125 -94.359375 C 57 -94.960938 55.78125 -95.328125 54.46875 -95.453125 C 53.164062 -95.585938 51.925781 -95.523438 50.75 -95.265625 C 49.582031 -95.003906 48.410156 -94.59375 47.234375 -94.03125 C 46.066406 -93.46875 45.003906 -92.835938 44.046875 -92.140625 C 43.097656 -91.441406 42.1875 -90.703125 41.3125 -89.921875 C 37.226562 -86.191406 33.664062 -81.5 30.625 -75.84375 C 29.757812 -74.113281 29.019531 -72.507812 28.40625 -71.03125 C 28.582031 -71.46875 28.582031 -71.507812 28.40625 -71.15625 C 28.40625 -71.070312 28.363281 -70.898438 28.28125 -70.640625 L 28.015625 -70.109375 C 27.753906 -69.421875 27.492188 -68.726562 27.234375 -68.03125 C 26.191406 -64.90625 25.320312 -61.734375 24.625 -58.515625 C 24.457031 -57.472656 24.285156 -56.472656 24.109375 -55.515625 C 24.109375 -55.429688 24.066406 -55.171875 23.984375 -54.734375 C 23.722656 -53.171875 23.546875 -51.566406 23.453125 -49.921875 C 23.285156 -46.617188 23.332031 -43.445312 23.59375 -40.40625 C 23.675781 -39.363281 23.757812 -38.84375 23.84375 -38.84375 C 23.757812 -38.84375 23.71875 -39.054688 23.71875 -39.484375 C 23.800781 -38.535156 23.890625 -37.84375 23.984375 -37.40625 C 24.328125 -35.925781 24.671875 -34.445312 25.015625 -32.96875 C 25.273438 -32.1875 25.539062 -31.445312 25.8125 -30.75 C 25.8125 -30.664062 25.851562 -30.492188 25.9375 -30.234375 L 26.203125 -29.453125 C 26.203125 -29.453125 26.15625 -29.582031 26.0625 -29.84375 C 26.675781 -28.28125 27.546875 -26.628906 28.671875 -24.890625 C 28.847656 -24.546875 29.367188 -23.722656 30.234375 -22.421875 C 30.492188 -22.066406 30.625 -21.890625 30.625 -21.890625 L 30.625 -21.765625 C 30.707031 -21.765625 30.835938 -21.675781 31.015625 -21.5 L 31.28125 -21.109375 C 32.40625 -19.804688 33.578125 -18.59375 34.796875 -17.46875 C 35.398438 -16.945312 35.832031 -16.597656 36.09375 -16.421875 C 36.789062 -15.898438 37.617188 -15.335938 38.578125 -14.734375 C 39.441406 -14.203125 40.179688 -13.765625 40.796875 -13.421875 C 41.578125 -12.984375 42.097656 -12.722656 42.359375 -12.640625 C 43.660156 -12.035156 45.394531 -11.515625 47.5625 -11.078125 C 47.65625 -10.992188 47.960938 -10.90625 48.484375 -10.8125 L 49.265625 -10.6875 C 49.347656 -10.6875 49.566406 -10.6875 49.921875 -10.6875 L 50.828125 -10.5625 C 51.347656 -10.5625 52.347656 -10.601562 53.828125 -10.6875 L 53.828125 -10.5625 L 53.6875 -10.5625 C 53.957031 -10.644531 54.304688 -10.726562 54.734375 -10.8125 C 55.867188 -11.070312 57.21875 -11.421875 58.78125 -11.859375 C 58.945312 -11.941406 59.117188 -12.03125 59.296875 -12.125 C 59.648438 -12.289062 60 -12.460938 60.34375 -12.640625 C 61.039062 -12.984375 61.648438 -13.285156 62.171875 -13.546875 C 63.640625 -14.335938 64.941406 -15.164062 66.078125 -16.03125 C 68.078125 -17.59375 70.160156 -19.632812 72.328125 -22.15625 C 74.585938 -24.757812 78.195312 -29.972656 83.15625 -37.796875 C 84.28125 -39.617188 85.816406 -40.117188 87.765625 -39.296875 C 89.722656 -38.472656 90.441406 -37.0625 89.921875 -35.0625 C 88.617188 -30.539062 86.96875 -26.21875 84.96875 -22.09375 C 82.96875 -17.96875 80.535156 -13.992188 77.671875 -10.171875 C 74.804688 -6.347656 71.394531 -3.128906 67.4375 -0.515625 C 63.488281 2.085938 59.253906 3.738281 54.734375 4.4375 C 44.484375 6 35.078125 3.675781 26.515625 -2.53125 C 17.960938 -8.75 12.125 -16.984375 9 -27.234375 C 6.644531 -35.578125 5.945312 -43.914062 6.90625 -52.25 C 7.863281 -60.59375 10.207031 -68.675781 13.9375 -76.5 C 17.9375 -84.757812 22.71875 -91.191406 28.28125 -95.796875 C 36.53125 -102.660156 44.304688 -105.914062 51.609375 -105.5625 C 55.953125 -105.300781 59.835938 -103.929688 63.265625 -101.453125 C 66.703125 -98.984375 68.769531 -95.707031 69.46875 -91.625 Z M 69.46875 -91.625 "/></g></g></g><g fill="#ff66c4" fill-opacity="1"><g transform="translate(177.310556, 147.89569)"><g><path d="M 26.71875 -72.328125 C 30.28125 -72.765625 33.296875 -71.742188 35.765625 -69.265625 C 38.242188 -66.796875 39.351562 -63.78125 39.09375 -60.21875 C 38.75 -56.039062 37.144531 -53.128906 34.28125 -51.484375 C 32.363281 -50.265625 30.382812 -49.976562 28.34375 -50.625 C 26.300781 -51.28125 24.976562 -52.648438 24.375 -54.734375 C 23.851562 -56.554688 24.394531 -57.859375 26 -58.640625 C 27.601562 -59.429688 29.015625 -59.21875 30.234375 -58 C 30.753906 -58.257812 31.054688 -58.472656 31.140625 -58.640625 C 31.671875 -59.078125 32.019531 -59.773438 32.1875 -60.734375 C 32.539062 -62.472656 32.0625 -63.816406 30.75 -64.765625 C 29.1875 -65.460938 27.664062 -65.550781 26.1875 -65.03125 C 24.71875 -64.507812 23.375 -63.6875 22.15625 -62.5625 C 20.070312 -60.5625 18.769531 -57.34375 18.25 -52.90625 C 18.25 -52.382812 18.25 -52.039062 18.25 -51.875 C 18.507812 -49.09375 18.679688 -45.269531 18.765625 -40.40625 C 18.941406 -38.75 18.960938 -36.75 18.828125 -34.40625 C 18.703125 -32.0625 18.289062 -30.148438 17.59375 -28.671875 C 16.8125 -27.367188 15.722656 -26.757812 14.328125 -26.84375 C 12.941406 -26.9375 11.859375 -27.585938 11.078125 -28.796875 C 10.992188 -28.796875 10.953125 -28.753906 10.953125 -28.671875 C 10.515625 -29.367188 10.144531 -30.238281 9.84375 -31.28125 C 9.539062 -32.320312 9.34375 -33.125 9.25 -33.6875 C 9.164062 -34.25 9.078125 -35.289062 8.984375 -36.8125 C 8.898438 -38.332031 8.859375 -39.179688 8.859375 -39.359375 C 8.773438 -40.742188 8.601562 -42.71875 8.34375 -45.28125 C 8.082031 -47.851562 7.953125 -49.398438 7.953125 -49.921875 C 7.335938 -56.429688 6.507812 -63.25 5.46875 -70.375 C 5.300781 -71.9375 5.847656 -73.148438 7.109375 -74.015625 C 8.367188 -74.890625 9.601562 -74.71875 10.8125 -73.5 C 12.8125 -71.5 14.421875 -68.851562 15.640625 -65.5625 C 18.597656 -69.46875 22.289062 -71.722656 26.71875 -72.328125 Z M 30.359375 -58 C 30.535156 -57.820312 30.664062 -57.644531 30.75 -57.46875 C 30.582031 -57.644531 30.453125 -57.820312 30.359375 -58 Z M 30.359375 -58 "/></g></g></g><g fill="#ff66c4" fill-opacity="1"><g transform="translate(216.407028, 147.89569)"><g><path d="M 46.390625 -50.5625 C 47.265625 -51.601562 48.394531 -51.710938 49.78125 -50.890625 C 51.175781 -50.066406 51.613281 -49.046875 51.09375 -47.828125 C 49.175781 -43.222656 46.285156 -39.289062 42.421875 -36.03125 C 38.554688 -32.769531 34.234375 -30.707031 29.453125 -29.84375 C 24.503906 -29.0625 20.550781 -29.191406 17.59375 -30.234375 C 12.8125 -32.054688 9.289062 -35.1875 7.03125 -39.625 C 5.46875 -42.664062 4.535156 -46.03125 4.234375 -49.71875 C 3.929688 -53.414062 4.410156 -57.019531 5.671875 -60.53125 C 6.929688 -64.050781 8.992188 -66.769531 11.859375 -68.6875 C 16.117188 -71.726562 20.421875 -72.679688 24.765625 -71.546875 C 29.285156 -70.421875 31.546875 -67.117188 31.546875 -61.640625 C 31.453125 -57.296875 30.164062 -53.535156 27.6875 -50.359375 C 25.21875 -47.191406 21.941406 -45.21875 17.859375 -44.4375 C 19.066406 -42.53125 20.671875 -41.335938 22.671875 -40.859375 C 24.671875 -40.378906 27.101562 -40.269531 29.96875 -40.53125 C 33.1875 -40.875 35.664062 -41.65625 37.40625 -42.875 C 41.832031 -46.09375 44.828125 -48.65625 46.390625 -50.5625 Z M 16.296875 -49.140625 C 19.941406 -50.347656 22.632812 -52.519531 24.375 -55.65625 C 25.414062 -57.644531 25.847656 -59.640625 25.671875 -61.640625 C 25.492188 -62.773438 25.144531 -63.445312 24.625 -63.65625 C 24.101562 -63.875 23.320312 -63.722656 22.28125 -63.203125 C 19.757812 -62.253906 18 -60.410156 17 -57.671875 C 16.007812 -54.929688 15.773438 -52.085938 16.296875 -49.140625 Z M 12.375 -78.59375 C 11.332031 -78.238281 10.375 -78.429688 9.5 -79.171875 C 8.632812 -79.910156 8.160156 -80.84375 8.078125 -81.96875 C 8.078125 -82.664062 8.296875 -83.453125 8.734375 -84.328125 C 9.253906 -85.628906 10.515625 -87.492188 12.515625 -89.921875 C 14.859375 -92.703125 16.332031 -94.484375 16.9375 -95.265625 C 17.03125 -95.359375 17.25 -95.597656 17.59375 -95.984375 C 17.9375 -96.378906 18.195312 -96.660156 18.375 -96.828125 C 18.550781 -97.003906 18.789062 -97.222656 19.09375 -97.484375 C 19.394531 -97.742188 19.695312 -97.957031 20 -98.125 C 20.3125 -98.300781 20.597656 -98.4375 20.859375 -98.53125 C 22.503906 -98.875 23.976562 -98.484375 25.28125 -97.359375 C 26.0625 -96.660156 26.929688 -95.875 27.890625 -95 C 28.847656 -94.132812 29.695312 -93.351562 30.4375 -92.65625 C 31.175781 -91.96875 32.039062 -91.164062 33.03125 -90.25 C 34.03125 -89.34375 34.878906 -88.582031 35.578125 -87.96875 C 36.710938 -86.925781 37.492188 -86.054688 37.921875 -85.359375 C 37.921875 -85.359375 37.96875 -85.316406 38.0625 -85.234375 C 39.1875 -83.328125 39.050781 -81.742188 37.65625 -80.484375 C 36.269531 -79.222656 34.578125 -79.023438 32.578125 -79.890625 C 32.234375 -80.066406 31.820312 -80.304688 31.34375 -80.609375 C 30.863281 -80.910156 30.472656 -81.210938 30.171875 -81.515625 C 29.867188 -81.816406 29.5 -82.1875 29.0625 -82.625 C 28.625 -83.0625 28.273438 -83.367188 28.015625 -83.546875 C 26.453125 -84.847656 24.890625 -86.148438 23.328125 -87.453125 C 22.460938 -88.148438 21.378906 -87.671875 20.078125 -86.015625 C 18.597656 -84.273438 16.6875 -82.234375 14.34375 -79.890625 C 13.726562 -79.285156 13.070312 -78.851562 12.375 -78.59375 Z M 12.375 -78.59375 "/></g></g></g><g fill="#ff66c4" fill-opacity="1"><g transform="translate(255.242859, 147.89569)"><g><path d="M 27.109375 -73.765625 C 31.535156 -74.546875 35.507812 -73.785156 39.03125 -71.484375 C 42.550781 -69.179688 45.113281 -66.140625 46.71875 -62.359375 C 48.320312 -58.578125 49.054688 -54.445312 48.921875 -49.96875 C 48.796875 -45.5 47.648438 -41.570312 45.484375 -38.1875 C 43.128906 -34.707031 40.101562 -31.96875 36.40625 -29.96875 C 32.71875 -27.976562 28.878906 -27.285156 24.890625 -27.890625 C 21.585938 -28.410156 18.066406 -30.363281 14.328125 -33.75 C 14.328125 -26.539062 14.195312 -19.59375 13.9375 -12.90625 C 13.851562 -12.289062 13.742188 -10.113281 13.609375 -6.375 C 13.484375 -2.644531 13.375 -0.0859375 13.28125 1.296875 C 13.195312 2.691406 13.023438 4.734375 12.765625 7.421875 C 12.503906 10.117188 12.15625 12.554688 11.71875 14.734375 C 11.550781 15.679688 11.097656 16.375 10.359375 16.8125 C 9.617188 17.25 8.832031 17.378906 8 17.203125 C 7.175781 17.023438 6.4375 16.632812 5.78125 16.03125 C 5.132812 15.425781 4.769531 14.644531 4.6875 13.6875 C 4.425781 11.425781 4.296875 9.035156 4.296875 6.515625 C 4.296875 3.992188 4.335938 1.039062 4.421875 -2.34375 C 4.515625 -5.726562 4.5625 -8.117188 4.5625 -9.515625 C 4.644531 -11.679688 4.6875 -19.066406 4.6875 -31.671875 C 4.6875 -38.535156 4.554688 -46.140625 4.296875 -54.484375 C 4.296875 -55.265625 4.273438 -56.175781 4.234375 -57.21875 C 4.191406 -58.257812 4.171875 -59.191406 4.171875 -60.015625 C 4.171875 -60.835938 4.144531 -61.789062 4.09375 -62.875 C 4.050781 -63.96875 4.03125 -64.90625 4.03125 -65.6875 C 4.03125 -65.769531 4.078125 -66.03125 4.171875 -66.46875 C 4.335938 -69.425781 4.078125 -70.945312 3.390625 -71.03125 C 3.296875 -71.113281 3.207031 -71.113281 3.125 -71.03125 C 2.34375 -70.769531 1.625 -70.851562 0.96875 -71.28125 C 0.320312 -71.71875 -0.0859375 -72.304688 -0.265625 -73.046875 C -0.441406 -73.785156 -0.398438 -74.503906 -0.140625 -75.203125 C 0.734375 -77.023438 2.125 -78.066406 4.03125 -78.328125 C 5.945312 -78.585938 7.644531 -78.15625 9.125 -77.03125 C 10.164062 -76.332031 10.96875 -75.414062 11.53125 -74.28125 C 12.09375 -73.15625 12.4375 -72.132812 12.5625 -71.21875 C 12.695312 -70.3125 12.804688 -69.117188 12.890625 -67.640625 C 13.585938 -58.773438 14.023438 -51.476562 14.203125 -45.75 C 16.109375 -43.488281 17.800781 -41.921875 19.28125 -41.046875 C 21.882812 -39.660156 24.578125 -39.054688 27.359375 -39.234375 C 29.359375 -39.398438 31.226562 -40.203125 32.96875 -41.640625 C 34.707031 -43.078125 35.921875 -44.789062 36.609375 -46.78125 C 37.566406 -49.21875 37.875 -52.128906 37.53125 -55.515625 C 37.1875 -58.910156 36.226562 -61.648438 34.65625 -63.734375 C 32.75 -66.421875 30.535156 -67.550781 28.015625 -67.125 C 26.710938 -66.863281 25.492188 -66.253906 24.359375 -65.296875 C 23.929688 -64.859375 23.429688 -64.25 22.859375 -63.46875 C 22.296875 -62.6875 22.234375 -62.164062 22.671875 -61.90625 C 24.054688 -61.039062 24.445312 -59.820312 23.84375 -58.25 C 23.238281 -56.6875 22.109375 -56.125 20.453125 -56.5625 C 18.191406 -57.164062 16.757812 -58.53125 16.15625 -60.65625 C 15.550781 -62.789062 15.8125 -64.816406 16.9375 -66.734375 C 17.894531 -68.554688 19.285156 -70.097656 21.109375 -71.359375 C 22.929688 -72.617188 24.929688 -73.421875 27.109375 -73.765625 Z M 27.109375 -73.765625 "/></g></g></g><g fill="#ff66c4" fill-opacity="1"><g transform="translate(304.243782, 147.89569)"><g><path d="M 46.78125 -50.5625 C 47.65625 -51.695312 48.785156 -51.847656 50.171875 -51.015625 C 51.566406 -50.191406 52.003906 -49.128906 51.484375 -47.828125 C 49.566406 -43.222656 46.65625 -39.289062 42.75 -36.03125 C 38.84375 -32.769531 34.5 -30.707031 29.71875 -29.84375 C 24.757812 -29.0625 20.757812 -29.191406 17.71875 -30.234375 C 13.03125 -32.054688 9.515625 -35.1875 7.171875 -39.625 C 5.609375 -42.75 4.671875 -46.132812 4.359375 -49.78125 C 4.054688 -53.4375 4.535156 -57.046875 5.796875 -60.609375 C 7.054688 -64.171875 9.117188 -66.945312 11.984375 -68.9375 C 16.328125 -71.976562 20.671875 -72.9375 25.015625 -71.8125 C 29.535156 -70.59375 31.753906 -67.25 31.671875 -61.78125 C 31.671875 -57.4375 30.429688 -53.675781 27.953125 -50.5 C 25.472656 -47.332031 22.191406 -45.359375 18.109375 -44.578125 C 19.242188 -42.578125 20.832031 -41.335938 22.875 -40.859375 C 24.914062 -40.378906 27.367188 -40.269531 30.234375 -40.53125 C 33.453125 -40.875 35.929688 -41.65625 37.671875 -42.875 C 42.179688 -46.09375 45.21875 -48.65625 46.78125 -50.5625 Z M 22.546875 -63.34375 C 20.023438 -62.382812 18.242188 -60.535156 17.203125 -57.796875 C 16.160156 -55.054688 15.898438 -52.210938 16.421875 -49.265625 C 20.160156 -50.484375 22.851562 -52.65625 24.5 -55.78125 C 25.632812 -57.78125 26.070312 -59.78125 25.8125 -61.78125 C 25.71875 -62.90625 25.410156 -63.578125 24.890625 -63.796875 C 24.367188 -64.015625 23.585938 -63.863281 22.546875 -63.34375 Z M 22.546875 -63.34375 "/></g></g></g><g fill="#ff66c4" fill-opacity="1"><g transform="translate(343.323112, 147.89569)"><g/></g></g><g fill="#ff66c4" fill-opacity="1"><g transform="translate(374.209323, 147.89569)"><g/></g></g><g fill="#ff66c4" fill-opacity="1"><g transform="translate(34.950339, 236.526285)"><g><path d="M 69.421875 -91.5625 C 70.023438 -87.476562 69.304688 -83.804688 67.265625 -80.546875 C 65.234375 -77.296875 62.21875 -75.410156 58.21875 -74.890625 C 57 -74.804688 56.085938 -75.238281 55.484375 -76.1875 C 54.878906 -77.144531 54.769531 -78.1875 55.15625 -79.3125 C 55.550781 -80.445312 56.269531 -81.234375 57.3125 -81.671875 C 59.050781 -82.191406 60.285156 -83.316406 61.015625 -85.046875 C 61.753906 -86.785156 61.84375 -88.546875 61.28125 -90.328125 C 60.71875 -92.109375 59.65625 -93.429688 58.09375 -94.296875 C 56.957031 -94.910156 55.738281 -95.28125 54.4375 -95.40625 C 53.132812 -95.539062 51.894531 -95.476562 50.71875 -95.21875 C 49.550781 -94.957031 48.378906 -94.539062 47.203125 -93.96875 C 46.035156 -93.40625 44.972656 -92.773438 44.015625 -92.078125 C 43.066406 -91.390625 42.160156 -90.65625 41.296875 -89.875 C 37.210938 -86.132812 33.648438 -81.445312 30.609375 -75.8125 C 29.742188 -74.070312 29.003906 -72.460938 28.390625 -70.984375 C 28.566406 -71.421875 28.566406 -71.460938 28.390625 -71.109375 C 28.390625 -71.023438 28.347656 -70.851562 28.265625 -70.59375 L 28 -70.078125 C 27.738281 -69.378906 27.476562 -68.679688 27.21875 -67.984375 C 26.175781 -64.859375 25.3125 -61.691406 24.625 -58.484375 C 24.445312 -57.441406 24.269531 -56.441406 24.09375 -55.484375 C 24.09375 -55.398438 24.050781 -55.140625 23.96875 -54.703125 C 23.707031 -53.140625 23.53125 -51.535156 23.4375 -49.890625 C 23.269531 -46.585938 23.316406 -43.414062 23.578125 -40.375 C 23.660156 -39.332031 23.742188 -38.8125 23.828125 -38.8125 C 23.742188 -38.8125 23.703125 -39.03125 23.703125 -39.46875 C 23.785156 -38.507812 23.875 -37.8125 23.96875 -37.375 C 24.3125 -35.90625 24.660156 -34.429688 25.015625 -32.953125 C 25.273438 -32.171875 25.535156 -31.429688 25.796875 -30.734375 C 25.796875 -30.648438 25.835938 -30.476562 25.921875 -30.21875 L 26.1875 -29.4375 C 26.1875 -29.4375 26.140625 -29.566406 26.046875 -29.828125 C 26.660156 -28.265625 27.53125 -26.613281 28.65625 -24.875 C 28.832031 -24.53125 29.351562 -23.707031 30.21875 -22.40625 C 30.476562 -22.050781 30.609375 -21.875 30.609375 -21.875 L 30.609375 -21.75 C 30.691406 -21.75 30.820312 -21.660156 31 -21.484375 L 31.265625 -21.09375 C 32.390625 -19.789062 33.5625 -18.578125 34.78125 -17.453125 C 35.382812 -16.929688 35.816406 -16.582031 36.078125 -16.40625 C 36.773438 -15.882812 37.597656 -15.320312 38.546875 -14.71875 C 39.421875 -14.195312 40.160156 -13.765625 40.765625 -13.421875 C 41.546875 -12.984375 42.066406 -12.722656 42.328125 -12.640625 C 43.628906 -12.023438 45.367188 -11.503906 47.546875 -11.078125 C 47.628906 -10.984375 47.929688 -10.894531 48.453125 -10.8125 L 49.234375 -10.6875 C 49.316406 -10.6875 49.535156 -10.6875 49.890625 -10.6875 L 50.796875 -10.546875 C 51.316406 -10.546875 52.316406 -10.59375 53.796875 -10.6875 L 53.796875 -10.546875 L 53.65625 -10.546875 C 53.914062 -10.640625 54.265625 -10.726562 54.703125 -10.8125 C 55.828125 -11.070312 57.175781 -11.421875 58.75 -11.859375 C 58.914062 -11.941406 59.085938 -12.023438 59.265625 -12.109375 C 59.609375 -12.285156 59.957031 -12.460938 60.3125 -12.640625 C 61 -12.984375 61.601562 -13.285156 62.125 -13.546875 C 63.601562 -14.328125 64.90625 -15.148438 66.03125 -16.015625 C 68.03125 -17.578125 70.113281 -19.617188 72.28125 -22.140625 C 74.539062 -24.742188 78.144531 -29.953125 83.09375 -37.765625 C 84.226562 -39.585938 85.769531 -40.085938 87.71875 -39.265625 C 89.675781 -38.441406 90.394531 -37.03125 89.875 -35.03125 C 88.570312 -30.519531 86.921875 -26.203125 84.921875 -22.078125 C 82.921875 -17.953125 80.488281 -13.976562 77.625 -10.15625 C 74.757812 -6.332031 71.351562 -3.117188 67.40625 -0.515625 C 63.457031 2.085938 59.222656 3.734375 54.703125 4.421875 C 44.453125 5.984375 35.050781 3.660156 26.5 -2.546875 C 17.945312 -8.753906 12.109375 -16.976562 8.984375 -27.21875 C 6.640625 -35.550781 5.945312 -43.882812 6.90625 -52.21875 C 7.863281 -60.5625 10.207031 -68.640625 13.9375 -76.453125 C 17.925781 -84.703125 22.703125 -91.128906 28.265625 -95.734375 C 36.515625 -102.597656 44.285156 -105.851562 51.578125 -105.5 C 55.921875 -105.238281 59.804688 -103.867188 63.234375 -101.390625 C 66.660156 -98.921875 68.722656 -95.644531 69.421875 -91.5625 Z M 69.421875 -91.5625 "/></g></g></g><g fill="#ff66c4" fill-opacity="1"><g transform="translate(111.142265, 236.526285)"><g><path d="M 53.53125 -64.46875 C 54.914062 -65.601562 56.21875 -65.582031 57.4375 -64.40625 C 58.65625 -63.238281 58.703125 -61.957031 57.578125 -60.5625 C 54.796875 -57.351562 50.410156 -54.878906 44.421875 -53.140625 C 43.804688 -47.148438 41.503906 -41.941406 37.515625 -37.515625 C 35.171875 -34.910156 32.257812 -33.109375 28.78125 -32.109375 C 25.3125 -31.109375 21.925781 -30.867188 18.625 -31.390625 C 15.320312 -31.910156 12.257812 -33.273438 9.4375 -35.484375 C 6.613281 -37.703125 4.679688 -40.550781 3.640625 -44.03125 C 2.335938 -48.101562 2.617188 -52.59375 4.484375 -57.5 C 6.359375 -62.40625 9.207031 -66.378906 13.03125 -69.421875 C 14.5 -72.023438 16.835938 -73.828125 20.046875 -74.828125 C 23.265625 -75.828125 26.4375 -75.976562 29.5625 -75.28125 C 33.300781 -74.5 36.472656 -72.695312 39.078125 -69.875 C 41.679688 -67.050781 43.332031 -63.734375 44.03125 -59.921875 C 44.03125 -59.921875 44.070312 -59.875 44.15625 -59.78125 C 47.882812 -60.914062 51.007812 -62.476562 53.53125 -64.46875 Z M 25.265625 -66.296875 C 22.921875 -66.554688 21.398438 -66.035156 20.703125 -64.734375 C 20.441406 -64.128906 20.703125 -63.4375 21.484375 -62.65625 C 22.785156 -61.175781 25.523438 -59.914062 29.703125 -58.875 C 30.828125 -58.613281 32.082031 -58.484375 33.46875 -58.484375 C 32.601562 -63.347656 29.867188 -65.953125 25.265625 -66.296875 Z M 21.359375 -41.546875 C 25.097656 -41.023438 28.222656 -42.503906 30.734375 -45.984375 C 31.691406 -47.285156 32.429688 -48.847656 32.953125 -50.671875 C 28.179688 -50.148438 23.707031 -50.929688 19.53125 -53.015625 C 17.625 -53.960938 16.019531 -55.21875 14.71875 -56.78125 C 13.9375 -54.695312 13.457031 -52.921875 13.28125 -51.453125 C 13.195312 -50.316406 13.195312 -49.359375 13.28125 -48.578125 C 13.28125 -47.972656 13.367188 -47.5 13.546875 -47.15625 C 13.804688 -46.539062 14.148438 -45.972656 14.578125 -45.453125 C 15.015625 -44.929688 15.472656 -44.453125 15.953125 -44.015625 C 16.429688 -43.585938 16.972656 -43.195312 17.578125 -42.84375 C 18.191406 -42.5 18.800781 -42.21875 19.40625 -42 C 20.007812 -41.789062 20.660156 -41.640625 21.359375 -41.546875 Z M 21.359375 -41.546875 "/></g></g></g><g fill="#ff66c4" fill-opacity="1"><g transform="translate(157.117903, 236.526285)"><g><path d="M 57.4375 -49.5 C 58.21875 -50.445312 59.257812 -50.550781 60.5625 -49.8125 C 61.863281 -49.082031 62.300781 -48.109375 61.875 -46.890625 C 60.832031 -44.285156 60.070312 -42.460938 59.59375 -41.421875 C 59.113281 -40.378906 58.304688 -38.835938 57.171875 -36.796875 C 56.046875 -34.753906 54.832031 -33.082031 53.53125 -31.78125 C 52.226562 -30.476562 50.753906 -29.4375 49.109375 -28.65625 C 45.203125 -26.832031 41.421875 -26.851562 37.765625 -28.71875 C 34.117188 -30.582031 31.953125 -33.644531 31.265625 -37.90625 C 31.085938 -38.851562 30.953125 -39.914062 30.859375 -41.09375 C 30.773438 -42.269531 30.753906 -43.25 30.796875 -44.03125 C 30.847656 -44.8125 30.894531 -45.894531 30.9375 -47.28125 C 30.976562 -48.664062 31 -49.664062 31 -50.28125 C 31.175781 -51.84375 31.195312 -53.773438 31.0625 -56.078125 C 30.9375 -58.378906 30.484375 -60.265625 29.703125 -61.734375 C 29.003906 -62.953125 28.15625 -63.734375 27.15625 -64.078125 C 26.15625 -64.429688 25.132812 -64.410156 24.09375 -64.015625 C 23.050781 -63.628906 22.050781 -62.914062 21.09375 -61.875 C 18.84375 -59.789062 17.367188 -57.398438 16.671875 -54.703125 C 16.847656 -52.535156 16.9375 -51.101562 16.9375 -50.40625 C 17.019531 -49.1875 17.144531 -47.644531 17.3125 -45.78125 C 17.488281 -43.914062 17.640625 -42.304688 17.765625 -40.953125 C 17.898438 -39.609375 18.007812 -38.066406 18.09375 -36.328125 C 18.1875 -34.597656 18.191406 -33.039062 18.109375 -31.65625 C 18.015625 -29.914062 17.296875 -28.609375 15.953125 -27.734375 C 14.609375 -26.867188 13.175781 -26.675781 11.65625 -27.15625 C 10.132812 -27.632812 9.160156 -28.695312 8.734375 -30.34375 C 7.679688 -34.164062 6.984375 -40.679688 6.640625 -49.890625 C 6.296875 -58.304688 6.6875 -64.726562 7.8125 -69.15625 C 8.164062 -70.894531 9.335938 -71.765625 11.328125 -71.765625 C 13.328125 -71.765625 14.546875 -70.894531 14.984375 -69.15625 C 15.148438 -68.113281 15.363281 -66.898438 15.625 -65.515625 C 17.625 -67.597656 19.753906 -69.117188 22.015625 -70.078125 C 25.921875 -71.640625 29.519531 -71.421875 32.8125 -69.421875 C 36.113281 -67.421875 38.460938 -64.425781 39.859375 -60.4375 C 40.898438 -57.394531 41.421875 -53.007812 41.421875 -47.28125 C 41.421875 -47.101562 41.375 -46.40625 41.28125 -45.1875 C 41.195312 -43.976562 41.15625 -42.960938 41.15625 -42.140625 C 41.15625 -41.316406 41.285156 -40.445312 41.546875 -39.53125 C 41.804688 -38.613281 42.195312 -37.984375 42.71875 -37.640625 C 44.457031 -36.335938 47.019531 -37.335938 50.40625 -40.640625 C 50.925781 -41.160156 51.445312 -41.703125 51.96875 -42.265625 C 52.488281 -42.828125 52.960938 -43.410156 53.390625 -44.015625 C 53.828125 -44.628906 54.265625 -45.21875 54.703125 -45.78125 C 55.140625 -46.34375 55.617188 -46.972656 56.140625 -47.671875 C 56.660156 -48.367188 57.09375 -48.976562 57.4375 -49.5 Z M 57.4375 -49.5 "/></g></g></g><g fill="#ff66c4" fill-opacity="1"><g transform="translate(204.395975, 236.526285)"><g><path d="M 46.765625 -50.53125 C 47.628906 -51.664062 48.753906 -51.816406 50.140625 -50.984375 C 51.535156 -50.160156 51.972656 -49.097656 51.453125 -47.796875 C 49.535156 -43.203125 46.625 -39.273438 42.71875 -36.015625 C 38.8125 -32.753906 34.472656 -30.691406 29.703125 -29.828125 C 24.742188 -29.046875 20.75 -29.175781 17.71875 -30.21875 C 13.03125 -32.039062 9.507812 -35.164062 7.15625 -39.59375 C 5.59375 -42.71875 4.660156 -46.101562 4.359375 -49.75 C 4.054688 -53.394531 4.535156 -57 5.796875 -60.5625 C 7.054688 -64.125 9.117188 -66.90625 11.984375 -68.90625 C 16.328125 -71.945312 20.671875 -72.898438 25.015625 -71.765625 C 29.523438 -70.546875 31.738281 -67.203125 31.65625 -61.734375 C 31.65625 -57.390625 30.414062 -53.632812 27.9375 -50.46875 C 25.457031 -47.300781 22.179688 -45.328125 18.109375 -44.546875 C 19.234375 -42.546875 20.816406 -41.304688 22.859375 -40.828125 C 24.898438 -40.347656 27.351562 -40.238281 30.21875 -40.5 C 33.425781 -40.851562 35.898438 -41.640625 37.640625 -42.859375 C 42.160156 -46.066406 45.203125 -48.625 46.765625 -50.53125 Z M 22.53125 -63.296875 C 20.007812 -62.347656 18.226562 -60.503906 17.1875 -57.765625 C 16.144531 -55.023438 15.882812 -52.179688 16.40625 -49.234375 C 20.144531 -50.453125 22.835938 -52.625 24.484375 -55.75 C 25.617188 -57.75 26.054688 -59.742188 25.796875 -61.734375 C 25.703125 -62.867188 25.394531 -63.539062 24.875 -63.75 C 24.351562 -63.96875 23.570312 -63.816406 22.53125 -63.296875 Z M 22.53125 -63.296875 "/></g></g></g><g fill="#000000" fill-opacity="1"><g transform="translate(161.710578, 325.805492)"><g><path d="M 0.46875 -7.625 L 0.625 -7.40625 L -3.75 -4.140625 L -3.90625 -4.359375 Z M 0.46875 -7.625 "/></g></g></g><g fill="#000000" fill-opacity="1"><g transform="translate(167.048172, 321.82233)"><g/></g></g><g fill="#000000" fill-opacity="1"><g transform="translate(170.534436, 319.220719)"><g><path d="M -4.8125 -9.09375 C -4.90625 -9.03125 -5.003906 -9.003906 -5.109375 -9.015625 C -5.210938 -9.023438 -5.300781 -9.082031 -5.375 -9.1875 C -5.4375 -9.269531 -5.460938 -9.363281 -5.453125 -9.46875 C -5.441406 -9.582031 -5.390625 -9.671875 -5.296875 -9.734375 C -5.210938 -9.796875 -5.113281 -9.816406 -5 -9.796875 C -4.894531 -9.785156 -4.8125 -9.738281 -4.75 -9.65625 C -4.675781 -9.550781 -4.644531 -9.445312 -4.65625 -9.34375 C -4.675781 -9.238281 -4.726562 -9.15625 -4.8125 -9.09375 Z M 2.734375 0.796875 C 3.023438 1.191406 3.15625 1.566406 3.125 1.921875 C 3.09375 2.285156 2.859375 2.628906 2.421875 2.953125 L 1.984375 3.28125 L 1.8125 3.03125 L 2.25 2.703125 C 2.59375 2.441406 2.785156 2.175781 2.828125 1.90625 C 2.867188 1.632812 2.742188 1.300781 2.453125 0.90625 L -3.703125 -7.328125 L -3.46875 -7.515625 Z M 2.734375 0.796875 "/></g></g><g transform="translate(172.93876, 317.4265)"><g><path d="M -1.703125 -3.796875 C -2.210938 -4.472656 -2.519531 -5.15625 -2.625 -5.84375 C -2.738281 -6.539062 -2.65625 -7.203125 -2.375 -7.828125 C -2.09375 -8.460938 -1.644531 -9.007812 -1.03125 -9.46875 C -0.28125 -10.03125 0.492188 -10.304688 1.296875 -10.296875 C 2.109375 -10.296875 2.828125 -10.0625 3.453125 -9.59375 L 1.96875 -11.5625 L 2.203125 -11.75 L 7.046875 -5.265625 L 6.8125 -5.078125 L 5.34375 -7.0625 C 5.613281 -6.332031 5.632812 -5.578125 5.40625 -4.796875 C 5.175781 -4.023438 4.6875 -3.359375 3.9375 -2.796875 C 3.320312 -2.335938 2.671875 -2.0625 1.984375 -1.96875 C 1.304688 -1.882812 0.648438 -2 0.015625 -2.3125 C -0.617188 -2.625 -1.191406 -3.117188 -1.703125 -3.796875 Z M 4.390625 -8.328125 C 3.929688 -8.941406 3.398438 -9.390625 2.796875 -9.671875 C 2.203125 -9.953125 1.582031 -10.054688 0.9375 -9.984375 C 0.289062 -9.910156 -0.3125 -9.664062 -0.875 -9.25 C -1.457031 -8.8125 -1.875 -8.300781 -2.125 -7.71875 C -2.382812 -7.144531 -2.457031 -6.535156 -2.34375 -5.890625 C -2.226562 -5.242188 -1.929688 -4.601562 -1.453125 -3.96875 C -0.972656 -3.320312 -0.441406 -2.851562 0.140625 -2.5625 C 0.722656 -2.269531 1.328125 -2.164062 1.953125 -2.25 C 2.578125 -2.332031 3.179688 -2.59375 3.765625 -3.03125 C 4.328125 -3.445312 4.734375 -3.953125 4.984375 -4.546875 C 5.242188 -5.140625 5.320312 -5.757812 5.21875 -6.40625 C 5.125 -7.0625 4.847656 -7.703125 4.390625 -8.328125 Z M 4.390625 -8.328125 "/></g></g></g><g fill="#000000" fill-opacity="1"><g transform="translate(181.005259, 311.406903)"><g><path d="M -2.109375 -5.453125 C -2.378906 -6.171875 -2.398438 -6.921875 -2.171875 -7.703125 C -1.953125 -8.484375 -1.46875 -9.148438 -0.71875 -9.703125 C -0.101562 -10.160156 0.539062 -10.429688 1.21875 -10.515625 C 1.894531 -10.609375 2.550781 -10.503906 3.1875 -10.203125 C 3.832031 -9.898438 4.410156 -9.410156 4.921875 -8.734375 C 5.429688 -8.054688 5.738281 -7.363281 5.84375 -6.65625 C 5.945312 -5.957031 5.859375 -5.289062 5.578125 -4.65625 C 5.304688 -4.03125 4.863281 -3.488281 4.25 -3.03125 C 3.5 -2.476562 2.722656 -2.203125 1.921875 -2.203125 C 1.117188 -2.203125 0.40625 -2.441406 -0.21875 -2.921875 L 3.53125 2.125 L 3.3125 2.296875 L -3.8125 -7.25 L -3.59375 -7.421875 Z M 4.671875 -8.546875 C 4.191406 -9.179688 3.660156 -9.644531 3.078125 -9.9375 C 2.492188 -10.226562 1.890625 -10.332031 1.265625 -10.25 C 0.640625 -10.175781 0.03125 -9.921875 -0.5625 -9.484375 C -1.125 -9.066406 -1.53125 -8.5625 -1.78125 -7.96875 C -2.03125 -7.375 -2.101562 -6.75 -2 -6.09375 C -1.90625 -5.4375 -1.628906 -4.800781 -1.171875 -4.1875 C -0.710938 -3.5625 -0.1875 -3.109375 0.40625 -2.828125 C 1.007812 -2.554688 1.628906 -2.457031 2.265625 -2.53125 C 2.910156 -2.601562 3.515625 -2.847656 4.078125 -3.265625 C 4.671875 -3.703125 5.09375 -4.207031 5.34375 -4.78125 C 5.601562 -5.351562 5.675781 -5.960938 5.5625 -6.609375 C 5.445312 -7.253906 5.148438 -7.898438 4.671875 -8.546875 Z M 4.671875 -8.546875 "/></g></g></g><g fill="#000000" fill-opacity="1"><g transform="translate(189.071757, 305.387306)"><g><path d="M -1.703125 -3.796875 C -2.210938 -4.472656 -2.519531 -5.15625 -2.625 -5.84375 C -2.738281 -6.539062 -2.65625 -7.203125 -2.375 -7.828125 C -2.09375 -8.460938 -1.644531 -9.007812 -1.03125 -9.46875 C -0.28125 -10.03125 0.492188 -10.304688 1.296875 -10.296875 C 2.109375 -10.296875 2.828125 -10.0625 3.453125 -9.59375 L 1.96875 -11.5625 L 2.203125 -11.75 L 7.046875 -5.265625 L 6.8125 -5.078125 L 5.34375 -7.0625 C 5.613281 -6.332031 5.632812 -5.578125 5.40625 -4.796875 C 5.175781 -4.023438 4.6875 -3.359375 3.9375 -2.796875 C 3.320312 -2.335938 2.671875 -2.0625 1.984375 -1.96875 C 1.304688 -1.882812 0.648438 -2 0.015625 -2.3125 C -0.617188 -2.625 -1.191406 -3.117188 -1.703125 -3.796875 Z M 4.390625 -8.328125 C 3.929688 -8.941406 3.398438 -9.390625 2.796875 -9.671875 C 2.203125 -9.953125 1.582031 -10.054688 0.9375 -9.984375 C 0.289062 -9.910156 -0.3125 -9.664062 -0.875 -9.25 C -1.457031 -8.8125 -1.875 -8.300781 -2.125 -7.71875 C -2.382812 -7.144531 -2.457031 -6.535156 -2.34375 -5.890625 C -2.226562 -5.242188 -1.929688 -4.601562 -1.453125 -3.96875 C -0.972656 -3.320312 -0.441406 -2.851562 0.140625 -2.5625 C 0.722656 -2.269531 1.328125 -2.164062 1.953125 -2.25 C 2.578125 -2.332031 3.179688 -2.59375 3.765625 -3.03125 C 4.328125 -3.445312 4.734375 -3.953125 4.984375 -4.546875 C 5.242188 -5.140625 5.320312 -5.757812 5.21875 -6.40625 C 5.125 -7.0625 4.847656 -7.703125 4.390625 -8.328125 Z M 4.390625 -8.328125 "/></g></g></g><g fill="#000000" fill-opacity="1"><g transform="translate(197.138256, 299.36771)"><g><path d="M -1.140625 -9.484375 C -0.378906 -10.054688 0.421875 -10.285156 1.265625 -10.171875 C 2.109375 -10.066406 2.882812 -9.535156 3.59375 -8.578125 L 6.421875 -4.796875 L 6.1875 -4.609375 L 3.34375 -8.421875 C 2.707031 -9.265625 2.007812 -9.753906 1.25 -9.890625 C 0.5 -10.023438 -0.242188 -9.816406 -0.984375 -9.265625 C -1.753906 -8.691406 -2.179688 -7.976562 -2.265625 -7.125 C -2.359375 -6.28125 -2.039062 -5.367188 -1.3125 -4.390625 L 1.265625 -0.9375 L 1.03125 -0.765625 L -3.8125 -7.25 L -3.578125 -7.421875 L -2.296875 -5.71875 C -2.609375 -6.4375 -2.648438 -7.125 -2.421875 -7.78125 C -2.203125 -8.4375 -1.773438 -9.003906 -1.140625 -9.484375 Z M -1.140625 -9.484375 "/></g></g></g><g fill="#000000" fill-opacity="1"><g transform="translate(204.519523, 293.859465)"><g><path d="M 3.734375 -3.015625 C 4.472656 -3.554688 4.953125 -4.191406 5.171875 -4.921875 C 5.398438 -5.660156 5.328125 -6.394531 4.953125 -7.125 L 5.1875 -7.296875 C 5.582031 -6.523438 5.671875 -5.734375 5.453125 -4.921875 C 5.242188 -4.109375 4.726562 -3.394531 3.90625 -2.78125 C 3.300781 -2.332031 2.664062 -2.066406 2 -1.984375 C 1.332031 -1.898438 0.675781 -2.007812 0.03125 -2.3125 C -0.613281 -2.625 -1.191406 -3.117188 -1.703125 -3.796875 C -2.210938 -4.472656 -2.519531 -5.160156 -2.625 -5.859375 C -2.726562 -6.566406 -2.644531 -7.226562 -2.375 -7.84375 C -2.101562 -8.46875 -1.664062 -9.003906 -1.0625 -9.453125 C -0.425781 -9.921875 0.210938 -10.1875 0.859375 -10.25 C 1.515625 -10.320312 2.113281 -10.226562 2.65625 -9.96875 C 3.195312 -9.71875 3.644531 -9.351562 4 -8.875 C 4.21875 -8.59375 4.375 -8.375 4.46875 -8.21875 L -1.375 -3.859375 C -0.863281 -3.203125 -0.3125 -2.742188 0.28125 -2.484375 C 0.882812 -2.234375 1.484375 -2.160156 2.078125 -2.265625 C 2.671875 -2.378906 3.222656 -2.628906 3.734375 -3.015625 Z M -0.90625 -9.234375 C -1.414062 -8.847656 -1.800781 -8.382812 -2.0625 -7.84375 C -2.332031 -7.300781 -2.429688 -6.707031 -2.359375 -6.0625 C -2.296875 -5.414062 -2.019531 -4.753906 -1.53125 -4.078125 L 4.109375 -8.296875 C 3.648438 -8.992188 3.125 -9.46875 2.53125 -9.71875 C 1.945312 -9.976562 1.351562 -10.054688 0.75 -9.953125 C 0.15625 -9.847656 -0.394531 -9.609375 -0.90625 -9.234375 Z M -0.90625 -9.234375 "/></g></g></g><g fill="#000000" fill-opacity="1"><g transform="translate(212.069091, 288.225626)"><g><path d="M 3.1875 -2.234375 C 2.46875 -1.691406 1.78125 -1.40625 1.125 -1.375 C 0.476562 -1.34375 -0.0976562 -1.59375 -0.609375 -2.125 L -0.375 -2.296875 C 0.03125 -1.859375 0.519531 -1.644531 1.09375 -1.65625 C 1.675781 -1.675781 2.316406 -1.953125 3.015625 -2.484375 C 3.367188 -2.742188 3.628906 -3.035156 3.796875 -3.359375 C 3.960938 -3.691406 4.03125 -4.03125 4 -4.375 C 3.976562 -4.71875 3.867188 -5.019531 3.671875 -5.28125 C 3.460938 -5.5625 3.207031 -5.726562 2.90625 -5.78125 C 2.601562 -5.84375 2.296875 -5.828125 1.984375 -5.734375 C 1.671875 -5.648438 1.257812 -5.515625 0.75 -5.328125 C 0.1875 -5.085938 -0.285156 -4.914062 -0.671875 -4.8125 C -1.054688 -4.71875 -1.441406 -4.71875 -1.828125 -4.8125 C -2.222656 -4.90625 -2.570312 -5.15625 -2.875 -5.5625 C -3.082031 -5.851562 -3.191406 -6.191406 -3.203125 -6.578125 C -3.210938 -6.960938 -3.117188 -7.34375 -2.921875 -7.71875 C -2.722656 -8.09375 -2.429688 -8.421875 -2.046875 -8.703125 C -1.390625 -9.203125 -0.738281 -9.429688 -0.09375 -9.390625 C 0.550781 -9.359375 1.109375 -9.0625 1.578125 -8.5 L 1.34375 -8.328125 C 0.957031 -8.796875 0.476562 -9.054688 -0.09375 -9.109375 C -0.664062 -9.160156 -1.265625 -8.953125 -1.890625 -8.484375 C -2.222656 -8.234375 -2.472656 -7.941406 -2.640625 -7.609375 C -2.816406 -7.285156 -2.90625 -6.957031 -2.90625 -6.625 C -2.90625 -6.289062 -2.816406 -6 -2.640625 -5.75 C -2.367188 -5.394531 -2.054688 -5.175781 -1.703125 -5.09375 C -1.359375 -5.019531 -1.015625 -5.03125 -0.671875 -5.125 C -0.328125 -5.21875 0.113281 -5.375 0.65625 -5.59375 C 1.195312 -5.8125 1.640625 -5.960938 1.984375 -6.046875 C 2.328125 -6.140625 2.671875 -6.148438 3.015625 -6.078125 C 3.359375 -6.003906 3.65625 -5.796875 3.90625 -5.453125 C 4.15625 -5.128906 4.285156 -4.769531 4.296875 -4.375 C 4.316406 -3.976562 4.226562 -3.59375 4.03125 -3.21875 C 3.84375 -2.84375 3.5625 -2.515625 3.1875 -2.234375 Z M 3.1875 -2.234375 "/></g></g></g><g fill="#000000" fill-opacity="1"><g transform="translate(217.875528, 283.892593)"><g><path d="M 3.734375 -3.015625 C 4.472656 -3.554688 4.953125 -4.191406 5.171875 -4.921875 C 5.398438 -5.660156 5.328125 -6.394531 4.953125 -7.125 L 5.1875 -7.296875 C 5.582031 -6.523438 5.671875 -5.734375 5.453125 -4.921875 C 5.242188 -4.109375 4.726562 -3.394531 3.90625 -2.78125 C 3.300781 -2.332031 2.664062 -2.066406 2 -1.984375 C 1.332031 -1.898438 0.675781 -2.007812 0.03125 -2.3125 C -0.613281 -2.625 -1.191406 -3.117188 -1.703125 -3.796875 C -2.210938 -4.472656 -2.519531 -5.160156 -2.625 -5.859375 C -2.726562 -6.566406 -2.644531 -7.226562 -2.375 -7.84375 C -2.101562 -8.46875 -1.664062 -9.003906 -1.0625 -9.453125 C -0.425781 -9.921875 0.210938 -10.1875 0.859375 -10.25 C 1.515625 -10.320312 2.113281 -10.226562 2.65625 -9.96875 C 3.195312 -9.71875 3.644531 -9.351562 4 -8.875 C 4.21875 -8.59375 4.375 -8.375 4.46875 -8.21875 L -1.375 -3.859375 C -0.863281 -3.203125 -0.3125 -2.742188 0.28125 -2.484375 C 0.882812 -2.234375 1.484375 -2.160156 2.078125 -2.265625 C 2.671875 -2.378906 3.222656 -2.628906 3.734375 -3.015625 Z M -0.90625 -9.234375 C -1.414062 -8.847656 -1.800781 -8.382812 -2.0625 -7.84375 C -2.332031 -7.300781 -2.429688 -6.707031 -2.359375 -6.0625 C -2.296875 -5.414062 -2.019531 -4.753906 -1.53125 -4.078125 L 4.109375 -8.296875 C 3.648438 -8.992188 3.125 -9.46875 2.53125 -9.71875 C 1.945312 -9.976562 1.351562 -10.054688 0.75 -9.953125 C 0.15625 -9.847656 -0.394531 -9.609375 -0.90625 -9.234375 Z M -0.90625 -9.234375 "/></g></g></g><g fill="#000000" fill-opacity="1"><g transform="translate(225.425096, 278.258754)"><g/></g></g><g fill="#000000" fill-opacity="1"><g transform="translate(228.911359, 275.657142)"><g><path d="M -1.703125 -3.796875 C -2.210938 -4.472656 -2.519531 -5.160156 -2.625 -5.859375 C -2.726562 -6.566406 -2.644531 -7.226562 -2.375 -7.84375 C -2.101562 -8.46875 -1.664062 -9.003906 -1.0625 -9.453125 C -0.238281 -10.066406 0.585938 -10.359375 1.421875 -10.328125 C 2.265625 -10.296875 3 -9.984375 3.625 -9.390625 L 3.390625 -9.21875 C 2.804688 -9.78125 2.128906 -10.054688 1.359375 -10.046875 C 0.585938 -10.046875 -0.164062 -9.773438 -0.90625 -9.234375 C -1.425781 -8.847656 -1.816406 -8.375 -2.078125 -7.8125 C -2.347656 -7.257812 -2.441406 -6.648438 -2.359375 -5.984375 C -2.273438 -5.328125 -1.972656 -4.65625 -1.453125 -3.96875 C -0.941406 -3.28125 -0.382812 -2.800781 0.21875 -2.53125 C 0.832031 -2.257812 1.441406 -2.175781 2.046875 -2.28125 C 2.648438 -2.382812 3.210938 -2.628906 3.734375 -3.015625 C 4.472656 -3.554688 4.953125 -4.191406 5.171875 -4.921875 C 5.398438 -5.660156 5.328125 -6.394531 4.953125 -7.125 L 5.1875 -7.296875 C 5.582031 -6.523438 5.671875 -5.734375 5.453125 -4.921875 C 5.242188 -4.109375 4.726562 -3.394531 3.90625 -2.78125 C 3.300781 -2.332031 2.664062 -2.066406 2 -1.984375 C 1.332031 -1.898438 0.675781 -2.007812 0.03125 -2.3125 C -0.613281 -2.625 -1.191406 -3.117188 -1.703125 -3.796875 Z M -1.703125 -3.796875 "/></g></g></g><g fill="#000000" fill-opacity="1"><g transform="translate(236.460928, 270.023302)"><g><path d="M -2.40625 -5.859375 C -3 -7.203125 -2.578125 -8.410156 -1.140625 -9.484375 L -0.9375 -9.21875 L -1.03125 -9.15625 C -1.71875 -8.644531 -2.148438 -8.007812 -2.328125 -7.25 C -2.515625 -6.5 -2.273438 -5.679688 -1.609375 -4.796875 L 1.265625 -0.9375 L 1.03125 -0.765625 L -3.8125 -7.25 L -3.578125 -7.421875 Z M -2.40625 -5.859375 "/></g></g></g><g fill="#000000" fill-opacity="1"><g transform="translate(240.524233, 266.991075)"><g><path d="M 3.734375 -3.015625 C 4.472656 -3.554688 4.953125 -4.191406 5.171875 -4.921875 C 5.398438 -5.660156 5.328125 -6.394531 4.953125 -7.125 L 5.1875 -7.296875 C 5.582031 -6.523438 5.671875 -5.734375 5.453125 -4.921875 C 5.242188 -4.109375 4.726562 -3.394531 3.90625 -2.78125 C 3.300781 -2.332031 2.664062 -2.066406 2 -1.984375 C 1.332031 -1.898438 0.675781 -2.007812 0.03125 -2.3125 C -0.613281 -2.625 -1.191406 -3.117188 -1.703125 -3.796875 C -2.210938 -4.472656 -2.519531 -5.160156 -2.625 -5.859375 C -2.726562 -6.566406 -2.644531 -7.226562 -2.375 -7.84375 C -2.101562 -8.46875 -1.664062 -9.003906 -1.0625 -9.453125 C -0.425781 -9.921875 0.210938 -10.1875 0.859375 -10.25 C 1.515625 -10.320312 2.113281 -10.226562 2.65625 -9.96875 C 3.195312 -9.71875 3.644531 -9.351562 4 -8.875 C 4.21875 -8.59375 4.375 -8.375 4.46875 -8.21875 L -1.375 -3.859375 C -0.863281 -3.203125 -0.3125 -2.742188 0.28125 -2.484375 C 0.882812 -2.234375 1.484375 -2.160156 2.078125 -2.265625 C 2.671875 -2.378906 3.222656 -2.628906 3.734375 -3.015625 Z M -0.90625 -9.234375 C -1.414062 -8.847656 -1.800781 -8.382812 -2.0625 -7.84375 C -2.332031 -7.300781 -2.429688 -6.707031 -2.359375 -6.0625 C -2.296875 -5.414062 -2.019531 -4.753906 -1.53125 -4.078125 L 4.109375 -8.296875 C 3.648438 -8.992188 3.125 -9.46875 2.53125 -9.71875 C 1.945312 -9.976562 1.351562 -10.054688 0.75 -9.953125 C 0.15625 -9.847656 -0.394531 -9.609375 -0.90625 -9.234375 Z M -0.90625 -9.234375 "/></g></g></g><g fill="#000000" fill-opacity="1"><g transform="translate(248.073801, 261.357236)"><g><path d="M -2.109375 -5.453125 C -2.378906 -6.171875 -2.398438 -6.921875 -2.171875 -7.703125 C -1.953125 -8.484375 -1.46875 -9.148438 -0.71875 -9.703125 C -0.101562 -10.160156 0.539062 -10.429688 1.21875 -10.515625 C 1.894531 -10.609375 2.550781 -10.503906 3.1875 -10.203125 C 3.832031 -9.898438 4.410156 -9.410156 4.921875 -8.734375 C 5.429688 -8.054688 5.738281 -7.363281 5.84375 -6.65625 C 5.945312 -5.957031 5.859375 -5.289062 5.578125 -4.65625 C 5.304688 -4.03125 4.863281 -3.488281 4.25 -3.03125 C 3.5 -2.476562 2.722656 -2.203125 1.921875 -2.203125 C 1.117188 -2.203125 0.40625 -2.441406 -0.21875 -2.921875 L 3.53125 2.125 L 3.3125 2.296875 L -3.8125 -7.25 L -3.59375 -7.421875 Z M 4.671875 -8.546875 C 4.191406 -9.179688 3.660156 -9.644531 3.078125 -9.9375 C 2.492188 -10.226562 1.890625 -10.332031 1.265625 -10.25 C 0.640625 -10.175781 0.03125 -9.921875 -0.5625 -9.484375 C -1.125 -9.066406 -1.53125 -8.5625 -1.78125 -7.96875 C -2.03125 -7.375 -2.101562 -6.75 -2 -6.09375 C -1.90625 -5.4375 -1.628906 -4.800781 -1.171875 -4.1875 C -0.710938 -3.5625 -0.1875 -3.109375 0.40625 -2.828125 C 1.007812 -2.554688 1.628906 -2.457031 2.265625 -2.53125 C 2.910156 -2.601562 3.515625 -2.847656 4.078125 -3.265625 C 4.671875 -3.703125 5.09375 -4.207031 5.34375 -4.78125 C 5.601562 -5.351562 5.675781 -5.960938 5.5625 -6.609375 C 5.445312 -7.253906 5.148438 -7.898438 4.671875 -8.546875 Z M 4.671875 -8.546875 "/></g></g></g><g fill="#000000" fill-opacity="1"><g transform="translate(256.1403, 255.337639)"><g><path d="M 3.734375 -3.015625 C 4.472656 -3.554688 4.953125 -4.191406 5.171875 -4.921875 C 5.398438 -5.660156 5.328125 -6.394531 4.953125 -7.125 L 5.1875 -7.296875 C 5.582031 -6.523438 5.671875 -5.734375 5.453125 -4.921875 C 5.242188 -4.109375 4.726562 -3.394531 3.90625 -2.78125 C 3.300781 -2.332031 2.664062 -2.066406 2 -1.984375 C 1.332031 -1.898438 0.675781 -2.007812 0.03125 -2.3125 C -0.613281 -2.625 -1.191406 -3.117188 -1.703125 -3.796875 C -2.210938 -4.472656 -2.519531 -5.160156 -2.625 -5.859375 C -2.726562 -6.566406 -2.644531 -7.226562 -2.375 -7.84375 C -2.101562 -8.46875 -1.664062 -9.003906 -1.0625 -9.453125 C -0.425781 -9.921875 0.210938 -10.1875 0.859375 -10.25 C 1.515625 -10.320312 2.113281 -10.226562 2.65625 -9.96875 C 3.195312 -9.71875 3.644531 -9.351562 4 -8.875 C 4.21875 -8.59375 4.375 -8.375 4.46875 -8.21875 L -1.375 -3.859375 C -0.863281 -3.203125 -0.3125 -2.742188 0.28125 -2.484375 C 0.882812 -2.234375 1.484375 -2.160156 2.078125 -2.265625 C 2.671875 -2.378906 3.222656 -2.628906 3.734375 -3.015625 Z M -0.90625 -9.234375 C -1.414062 -8.847656 -1.800781 -8.382812 -2.0625 -7.84375 C -2.332031 -7.300781 -2.429688 -6.707031 -2.359375 -6.0625 C -2.296875 -5.414062 -2.019531 -4.753906 -1.53125 -4.078125 L 4.109375 -8.296875 C 3.648438 -8.992188 3.125 -9.46875 2.53125 -9.71875 C 1.945312 -9.976562 1.351562 -10.054688 0.75 -9.953125 C 0.15625 -9.847656 -0.394531 -9.609375 -0.90625 -9.234375 Z M -0.90625 -9.234375 "/></g></g></g><g fill="#000000" fill-opacity="1"><g transform="translate(263.689869, 249.7038)"><g/></g></g><g fill="#000000" fill-opacity="1"><g transform="translate(267.176132, 247.102188)"><g><path d="M 0.46875 -7.625 L 0.625 -7.40625 L -3.75 -4.140625 L -3.90625 -4.359375 Z M 0.46875 -7.625 "/></g></g></g></svg>