<svg xmlns="http://www.w3.org/2000/svg" xmlns:xlink="http://www.w3.org/1999/xlink" width="50" zoomAndPan="magnify" viewBox="0 0 37.5 37.499999" height="50" preserveAspectRatio="xMidYMid meet" version="1.0"><defs><clipPath id="badf5279b3"><path d="M 0 0 L 37.007812 0 L 37.007812 37.007812 L 0 37.007812 Z M 0 0 " clip-rule="nonzero"/></clipPath><clipPath id="3ad2ab2900"><path d="M 20 14 L 31.140625 14 L 31.140625 24 L 20 24 Z M 20 14 " clip-rule="nonzero"/></clipPath><clipPath id="38bf17f477"><path d="M 23 20 L 30 20 L 30 25.789062 L 23 25.789062 Z M 23 20 " clip-rule="nonzero"/></clipPath><clipPath id="e6bdec8148"><path d="M 12 20 L 18 20 L 18 25.789062 L 12 25.789062 Z M 12 20 " clip-rule="nonzero"/></clipPath><clipPath id="103c8888ab"><path d="M 6.390625 19 L 14 19 L 14 21 L 6.390625 21 Z M 6.390625 19 " clip-rule="nonzero"/></clipPath><clipPath id="bcf0b92189"><path d="M 10 11.539062 L 24 11.539062 L 24 24 L 10 24 Z M 10 11.539062 " clip-rule="nonzero"/></clipPath></defs><g clip-path="url(#badf5279b3)"><path fill="#ffffff" d="M 0 0 L 37.5 0 L 37.5 37.5 L 0 37.5 Z M 0 0 " fill-opacity="1" fill-rule="nonzero"/><path fill="#ffffff" d="M 0 0 L 37.5 0 L 37.5 37.5 L 0 37.5 Z M 0 0 " fill-opacity="1" fill-rule="nonzero"/></g><path fill="#ff66c4" d="M 13.097656 23.75 L 11.035156 23.75 C 10.75 23.75 10.519531 23.523438 10.519531 23.242188 C 10.519531 22.960938 10.75 22.734375 11.035156 22.734375 L 13.097656 22.734375 C 13.378906 22.734375 13.613281 22.960938 13.613281 23.242188 C 13.613281 23.523438 13.378906 23.75 13.097656 23.75 Z M 13.097656 23.75 " fill-opacity="1" fill-rule="nonzero"/><g clip-path="url(#3ad2ab2900)"><path fill="#ff66c4" d="M 29.851562 23.75 L 28.5625 23.75 C 28.277344 23.75 28.046875 23.523438 28.046875 23.242188 C 28.046875 22.960938 28.277344 22.734375 28.5625 22.734375 L 29.421875 22.734375 L 30.117188 19.078125 C 30.109375 17.207031 28.488281 15.609375 26.5 15.609375 L 23.113281 15.609375 L 21.472656 22.734375 L 24.4375 22.734375 C 24.722656 22.734375 24.953125 22.960938 24.953125 23.242188 C 24.953125 23.523438 24.722656 23.75 24.4375 23.75 L 20.828125 23.75 C 20.671875 23.75 20.523438 23.679688 20.425781 23.558594 C 20.328125 23.441406 20.289062 23.28125 20.324219 23.128906 L 22.199219 14.988281 C 22.253906 14.753906 22.460938 14.589844 22.703125 14.589844 L 26.5 14.589844 C 29.058594 14.589844 31.140625 16.644531 31.140625 19.171875 L 30.355469 23.335938 C 30.3125 23.578125 30.097656 23.75 29.851562 23.75 Z M 29.851562 23.75 " fill-opacity="1" fill-rule="nonzero"/></g><g clip-path="url(#38bf17f477)"><path fill="#ff66c4" d="M 26.5 25.789062 C 25.078125 25.789062 23.921875 24.644531 23.921875 23.242188 C 23.921875 21.839844 25.078125 20.699219 26.5 20.699219 C 27.921875 20.699219 29.078125 21.839844 29.078125 23.242188 C 29.078125 24.644531 27.921875 25.789062 26.5 25.789062 Z M 26.5 21.714844 C 25.648438 21.714844 24.953125 22.402344 24.953125 23.242188 C 24.953125 24.085938 25.648438 24.769531 26.5 24.769531 C 27.351562 24.769531 28.046875 24.085938 28.046875 23.242188 C 28.046875 22.402344 27.351562 21.714844 26.5 21.714844 Z M 26.5 21.714844 " fill-opacity="1" fill-rule="nonzero"/></g><g clip-path="url(#e6bdec8148)"><path fill="#ff66c4" d="M 15.15625 25.789062 C 13.738281 25.789062 12.582031 24.644531 12.582031 23.242188 C 12.582031 21.839844 13.738281 20.699219 15.15625 20.699219 C 16.578125 20.699219 17.734375 21.839844 17.734375 23.242188 C 17.734375 24.644531 16.578125 25.789062 15.15625 25.789062 Z M 15.15625 21.714844 C 14.304688 21.714844 13.613281 22.402344 13.613281 23.242188 C 13.613281 24.085938 14.304688 24.769531 15.15625 24.769531 C 16.011719 24.769531 16.703125 24.085938 16.703125 23.242188 C 16.703125 22.402344 16.011719 21.714844 15.15625 21.714844 Z M 15.15625 21.714844 " fill-opacity="1" fill-rule="nonzero"/></g><path fill="#ff66c4" d="M 13.097656 14.589844 L 8.972656 14.589844 C 8.6875 14.589844 8.457031 14.363281 8.457031 14.082031 C 8.457031 13.800781 8.6875 13.574219 8.972656 13.574219 L 13.097656 13.574219 C 13.378906 13.574219 13.613281 13.800781 13.613281 14.082031 C 13.613281 14.363281 13.378906 14.589844 13.097656 14.589844 Z M 13.097656 14.589844 " fill-opacity="1" fill-rule="nonzero"/><path fill="#ff66c4" d="M 13.097656 17.644531 L 7.941406 17.644531 C 7.65625 17.644531 7.425781 17.417969 7.425781 17.136719 C 7.425781 16.855469 7.65625 16.625 7.941406 16.625 L 13.097656 16.625 C 13.378906 16.625 13.613281 16.855469 13.613281 17.136719 C 13.613281 17.417969 13.378906 17.644531 13.097656 17.644531 Z M 13.097656 17.644531 " fill-opacity="1" fill-rule="nonzero"/><g clip-path="url(#103c8888ab)"><path fill="#ff66c4" d="M 13.097656 20.699219 L 6.910156 20.699219 C 6.625 20.699219 6.394531 20.46875 6.394531 20.1875 C 6.394531 19.90625 6.625 19.679688 6.910156 19.679688 L 13.097656 19.679688 C 13.378906 19.679688 13.613281 19.90625 13.613281 20.1875 C 13.613281 20.46875 13.378906 20.699219 13.097656 20.699219 Z M 13.097656 20.699219 " fill-opacity="1" fill-rule="nonzero"/></g><g clip-path="url(#bcf0b92189)"><path fill="#ff66c4" d="M 20.828125 23.75 L 17.21875 23.75 C 16.933594 23.75 16.703125 23.523438 16.703125 23.242188 C 16.703125 22.960938 16.933594 22.734375 17.21875 22.734375 L 20.417969 22.734375 L 22.761719 12.554688 L 11.035156 12.554688 C 10.75 12.554688 10.519531 12.328125 10.519531 12.046875 C 10.519531 11.765625 10.75 11.539062 11.035156 11.539062 L 23.40625 11.539062 C 23.5625 11.539062 23.710938 11.609375 23.808594 11.730469 C 23.90625 11.847656 23.945312 12.007812 23.910156 12.15625 L 21.332031 23.355469 C 21.277344 23.585938 21.070312 23.75 20.828125 23.75 Z M 20.828125 23.75 " fill-opacity="1" fill-rule="nonzero"/></g></svg>