<svg xmlns="http://www.w3.org/2000/svg" xmlns:xlink="http://www.w3.org/1999/xlink" width="50" zoomAndPan="magnify" viewBox="0 0 37.5 37.499999" height="50" preserveAspectRatio="xMidYMid meet" version="1.0"><defs><clipPath id="3eb627433e"><path d="M 0 0 L 37.007812 0 L 37.007812 37.007812 L 0 37.007812 Z M 0 0 " clip-rule="nonzero"/></clipPath><clipPath id="973e0a1ee7"><path d="M 8.28125 8.796875 L 29.28125 8.796875 L 29.28125 29.046875 L 8.28125 29.046875 Z M 8.28125 8.796875 " clip-rule="nonzero"/></clipPath></defs><g clip-path="url(#3eb627433e)"><path fill="#ffffff" d="M 0 0 L 37.5 0 L 37.5 37.5 L 0 37.5 Z M 0 0 " fill-opacity="1" fill-rule="nonzero"/><path fill="#ffffff" d="M 0 0 L 37.5 0 L 37.5 37.5 L 0 37.5 Z M 0 0 " fill-opacity="1" fill-rule="nonzero"/></g><g clip-path="url(#973e0a1ee7)"><path fill="#ffed80" d="M 18.78125 8.796875 L 21.484375 14.960938 C 21.589844 15.195312 21.75 15.402344 21.957031 15.554688 C 22.164062 15.707031 22.40625 15.800781 22.660156 15.828125 L 29.277344 16.53125 L 24.332031 21.042969 C 24.144531 21.214844 24 21.4375 23.921875 21.683594 C 23.84375 21.929688 23.828125 22.195312 23.882812 22.445312 L 25.269531 29.046875 L 19.507812 25.671875 C 19.289062 25.539062 19.035156 25.472656 18.78125 25.472656 C 18.527344 25.472656 18.273438 25.539062 18.054688 25.671875 L 12.292969 29.046875 L 13.679688 22.445312 C 13.730469 22.195312 13.71875 21.929688 13.640625 21.683594 C 13.5625 21.4375 13.417969 21.214844 13.230469 21.042969 L 8.285156 16.53125 L 14.898438 15.828125 C 15.152344 15.800781 15.398438 15.707031 15.605469 15.554688 C 15.808594 15.402344 15.972656 15.195312 16.078125 14.960938 Z M 18.78125 8.796875 " fill-opacity="1" fill-rule="evenodd"/></g></svg>