<svg width="100%" height="100%" id="svg" viewBox="0 0 1440 690" xmlns="http://www.w3.org/2000/svg" class="transition duration-300 ease-in-out delay-150"><path d="M 0,700 C 0,700 0,140 0,140 C 27.573415960422786,117.85678483585984 55.14683192084557,95.71356967171968 82,99 C 108.85316807915443,102.28643032828032 134.9860882770405,131.00250614898113 156,152 C 177.0139117229595,172.99749385101887 192.90881497099247,186.27640573235576 225,163 C 257.09118502900753,139.72359426764424 305.37865183898964,79.8918709215959 332,89 C 358.62134816101036,98.1081290784041 363.57657767304886,176.15611058126072 389,188 C 414.42342232695114,199.84388941873928 460.3150374688149,145.4836867533612 491,135 C 521.6849625311851,124.51631324663877 537.1632724516917,157.90914240529435 559,167 C 580.8367275483083,176.09085759470565 609.0318727244183,160.87974362546146 637,153 C 664.9681272755817,145.12025637453854 692.7092366506351,144.57188309285976 715,131 C 737.2907633493649,117.42811690714022 754.1311806730413,90.8327240030994 785,92 C 815.8688193269587,93.1672759969006 860.7660406571996,122.09722089474266 887,140 C 913.2339593428004,157.90277910525734 920.8046566981602,164.77839241792995 946,161 C 971.1953433018398,157.22160758207005 1014.0153325501599,142.78920943353765 1044,145 C 1073.9846674498401,147.21079056646235 1091.1340131012,166.06476984791945 1113,151 C 1134.8659868988,135.93523015208055 1161.4486150450393,86.95171117478448 1193,88 C 1224.5513849549607,89.04828882521552 1261.0715267186433,140.1283854529426 1290,156 C 1318.9284732813567,171.8716145470574 1340.2652780803876,152.53474701344496 1364,144 C 1387.7347219196124,135.46525298655504 1413.8673609598063,137.7326264932775 1440,140 C 1440,140 1440,700 1440,700 Z" stroke="none" stroke-width="0" fill="#4df4ff" fill-opacity="0.265" class="transition-all duration-300 ease-in-out delay-150 path-0"></path><path d="M 0,700 C 0,700 0,280 0,280 C 27.420262340513816,275.53849422752467 54.84052468102763,271.0769884550494 80,267 C 105.15947531897237,262.9230115449506 128.0581636164033,259.2305404073272 155,260 C 181.9418363835967,260.7694595926728 212.92682085335912,266.0008499156417 241,277 C 269.0731791466409,287.9991500843583 294.2345529701603,304.76605993010594 322,301 C 349.7654470298397,297.23394006989406 380.13496726599965,272.9349103639345 403,278 C 425.86503273400035,283.0650896360655 441.22557796584067,317.49429861415626 465,323 C 488.77442203415933,328.50570138584374 520.9627208706374,305.08789517944035 548,301 C 575.0372791293626,296.91210482055965 596.9235385516093,312.1541206680823 628,312 C 659.0764614483907,311.8458793319177 699.3431249229252,296.2956221482304 726,299 C 752.6568750770748,301.7043778517696 765.70396175669,322.6633907389962 791,326 C 816.29603824331,329.3366092610038 853.8410280503144,315.05081489578475 885,300 C 916.1589719496856,284.94918510421525 940.9319260420519,269.1333496778649 967,265 C 993.0680739579481,260.8666503221351 1020.4312677814783,268.41578639275565 1047,263 C 1073.5687322185217,257.58421360724435 1099.3430028320347,239.2035047511124 1120,239 C 1140.6569971679653,238.7964952488876 1156.1967208903825,256.7701946027946 1185,277 C 1213.8032791096175,297.2298053972054 1255.8701136064356,319.7157168377091 1284,312 C 1312.1298863935644,304.2842831622909 1326.3228246838755,266.36693804636883 1350,256 C 1373.6771753161245,245.63306195363117 1406.8385876580624,262.81653097681556 1440,280 C 1440,280 1440,700 1440,700 Z" stroke="none" stroke-width="0" fill="#4df4ff" fill-opacity="0.4" class="transition-all duration-300 ease-in-out delay-150 path-1"></path><path d="M 0,700 C 0,700 0,420 0,420 C 18.312741304462826,419.05608735515386 36.62548260892565,418.11217471030767 66,434 C 95.37451739107435,449.88782528969233 135.8108108687602,482.60738851392307 165,471 C 194.1891891312398,459.39261148607693 212.13127391603356,403.4582712339999 233,391 C 253.86872608396644,378.5417287660001 277.6640934671054,409.55952655007735 306,406 C 334.3359065328946,402.44047344992265 367.212352215545,364.30362256569066 400,374 C 432.787647784455,383.69637743430934 465.4864976707147,441.22598318716024 493,458 C 520.5135023292853,474.77401681283976 542.8416571015965,450.7924446856683 565,429 C 587.1583428984035,407.2075553143317 609.146873922899,387.6042380701664 635,400 C 660.853126077101,412.3957619298336 690.5708472068073,456.7906030336663 715,458 C 739.4291527931927,459.2093969663337 758.5697372498718,417.23334979516846 789,412 C 819.4302627501282,406.76665020483154 861.150203793705,438.27599778565985 890,447 C 918.849796206295,455.72400221434015 934.8294475753083,441.66265906219235 959,446 C 983.1705524246917,450.33734093780765 1015.5320059050619,473.073365965571 1047,455 C 1078.4679940949381,436.926634034429 1109.0425288044446,378.04387707552377 1130,377 C 1150.9574711955554,375.95612292447623 1162.2978788771593,432.75112573233383 1190,449 C 1217.7021211228407,465.24887426766617 1261.7659556869187,440.95161999514085 1294,419 C 1326.2340443130813,397.04838000485915 1346.638298375166,377.4423942871026 1369,378 C 1391.361701624834,378.5576057128974 1415.680850812417,399.2788028564487 1440,420 C 1440,420 1440,700 1440,700 Z" stroke="none" stroke-width="0" fill="#4df4ff" fill-opacity="0.53" class="transition-all duration-300 ease-in-out delay-150 path-2"></path><path d="M 0,700 C 0,700 0,560 0,560 C 24.377345856901293,532.0275560668306 48.754691713802586,504.05511213366105 77,521 C 105.24530828619741,537.944887866339 137.3585790016909,599.8071075321863 168,593 C 198.6414209983091,586.1928924678137 227.81099227943372,510.71645773759406 249,508 C 270.1890077205663,505.28354226240594 283.3974518805742,575.3270615174374 312,594 C 340.6025481194258,612.6729384825626 384.5992001982697,579.975296192656 414,576 C 443.4007998017303,572.024703807344 458.2057473263469,596.7717537119389 481,602 C 503.7942526736531,607.2282462880611 534.5778104963425,592.9376889595885 559,576 C 583.4221895036575,559.0623110404115 601.4830106882833,539.4774904497069 628,547 C 654.5169893117167,554.5225095502931 689.4901467505242,589.1523492415835 716,582 C 742.5098532494758,574.8476507584165 760.5564023096201,525.9131125839592 790,507 C 819.4435976903799,488.0868874160408 860.2842440109952,499.19520042257955 890,510 C 919.7157559890048,520.8047995774205 938.3066216463994,531.3060857257229 959,555 C 979.6933783536006,578.6939142742771 1002.4892694034074,615.5804566745288 1027,607 C 1051.5107305965926,598.4195433254712 1077.7363007399708,544.3720875761621 1108,529 C 1138.2636992600292,513.6279124238379 1172.5655276367086,536.9311930208225 1202,541 C 1231.4344723632914,545.0688069791775 1256.0015887131938,529.9031403405478 1282,522 C 1307.9984112868062,514.0968596594522 1335.428117510516,513.4562456169863 1362,521 C 1388.571882489484,528.5437543830137 1414.285941244742,544.2718771915069 1440,560 C 1440,560 1440,700 1440,700 Z" stroke="none" stroke-width="0" fill="#4df4ff" fill-opacity="1" class="transition-all duration-300 ease-in-out delay-150 path-3"></path></svg>