<svg width="100%" height="100%" id="svg" viewBox="0 0 1440 390" xmlns="http://www.w3.org/2000/svg" class="transition duration-300 ease-in-out delay-150"><path d="M 0,400 C 0,400 0,80 0,80 C 45.74024300441829,65.83136966126656 91.48048600883658,51.662739322533135 148,51 C 204.51951399116342,50.337260677466865 271.81829896907203,63.180412371134025 350,77 C 428.18170103092797,90.81958762886597 517.246318114875,105.61561119293079 572,109 C 626.753681885125,112.38438880706921 647.1964285714284,104.35714285714286 706,103 C 764.8035714285716,101.64285714285714 861.9679675994109,106.95581737849778 929,109 C 996.0320324005891,111.04418262150222 1032.9317010309278,109.81958762886599 1087,101 C 1141.0682989690722,92.18041237113401 1212.3052282768779,75.76583210603829 1274,71 C 1335.6947717231221,66.23416789396171 1387.8473858615612,73.11708394698086 1440,80 C 1440,80 1440,400 1440,400 Z" stroke="none" stroke-width="0" fill="#4df4ff" fill-opacity="0.265" class="transition-all duration-300 ease-in-out delay-150 path-0"></path><path d="M 0,400 C 0,400 0,160 0,160 C 74.24484536082474,161.82511045655374 148.48969072164948,163.6502209131075 208,160 C 267.5103092783505,156.3497790868925 312.28608247422676,147.22422680412373 371,142 C 429.71391752577324,136.77577319587627 502.36597938144337,135.45287187039764 551,141 C 599.6340206185566,146.54712812960236 624.2500000000001,158.96428571428572 690,163 C 755.7499999999999,167.03571428571428 862.6340206185565,162.6899852724595 926,166 C 989.3659793814435,169.3100147275405 1009.2139175257732,180.2757731958763 1054,180 C 1098.7860824742268,179.7242268041237 1168.5103092783504,168.20692194403537 1237,163 C 1305.4896907216496,157.79307805596463 1372.744845360825,158.89653902798233 1440,160 C 1440,160 1440,400 1440,400 Z" stroke="none" stroke-width="0" fill="#4df4ff" fill-opacity="0.4" class="transition-all duration-300 ease-in-out delay-150 path-1"></path><path d="M 0,400 C 0,400 0,240 0,240 C 55.01270250368189,239.73343151693666 110.02540500736379,239.46686303387332 165,247 C 219.9745949926362,254.53313696612668 274.9110824742267,269.8659793814433 339,262 C 403.0889175257733,254.1340206185567 476.33026509572915,223.06921944035346 543,219 C 609.6697349042709,214.93078055964654 669.7678571428571,237.85714285714283 736,245 C 802.2321428571429,252.14285714285717 874.5983063328423,243.50220913107512 932,237 C 989.4016936671577,230.49779086892488 1031.838917525773,226.1340206185567 1084,226 C 1136.161082474227,225.8659793814433 1198.0460235640649,229.9617083946981 1259,233 C 1319.9539764359351,236.0382916053019 1379.9769882179676,238.01914580265094 1440,240 C 1440,240 1440,400 1440,400 Z" stroke="none" stroke-width="0" fill="#4df4ff" fill-opacity="0.53" class="transition-all duration-300 ease-in-out delay-150 path-2"></path><path d="M 0,400 C 0,400 0,320 0,320 C 65.48140648011781,313.61027245949924 130.96281296023562,307.22054491899854 183,306 C 235.03718703976438,304.77945508100146 273.63015463917526,308.7280927835052 334,306 C 394.36984536082474,303.2719072164948 476.51656848306334,293.86708394698087 539,304 C 601.4834315169367,314.13291605301913 644.3035714285716,343.8035714285714 700,344 C 755.6964285714284,344.1964285714286 824.2691458026509,314.91863033873346 894,311 C 963.7308541973491,307.08136966126654 1034.619845360825,328.5219072164948 1089,327 C 1143.380154639175,325.4780927835052 1181.25147275405,300.9937407952872 1237,296 C 1292.74852724595,291.0062592047128 1366.374263622975,305.5031296023564 1440,320 C 1440,320 1440,400 1440,400 Z" stroke="none" stroke-width="0" fill="#4df4ff" fill-opacity="1" class="transition-all duration-300 ease-in-out delay-150 path-3"></path></svg>